<svg xmlns="http://www.w3.org/2000/svg" width="56" height="60" viewBox="0 0 56 60" fill="none"><g id="Icon"><g id="Group"><path id="Vector" d="M28 3.15479C12.536 3.15479 0 15.6908 0 31.1548C0 38.8207 3.08169 45.7657 8.0725 50.8222L32.0244 58.8658C45.5813 56.914 56 45.252 56 31.1549C56 15.6908 43.464 3.15479 28 3.15479Z" fill="#FEF156"/></g><path id="Vector_2" d="M30.2322 13.9299L25.1528 0.640869C20.0823 0.640869 15.4138 2.35925 11.6956 5.24403V6.29191L9.50775 7.18687C5.59532 11.1543 3.17969 16.6017 3.17969 22.6139C3.20094 22.7085 3.0622 25.2011 4.00425 28.5574L5.28938 29.3489L4.64653 30.5003C5.38721 32.4383 6.50355 34.5418 8.18456 36.5774L11.2988 37.4345L9.99632 38.5202C10.693 39.1834 11.256 39.7975 11.7649 41.4155C12.5299 43.8479 11.9272 46.5051 10.2297 48.4079L8.07599 50.8221C11.9694 54.7667 17.0257 57.5593 22.6882 58.6479L22.6891 58.6485L22.6896 58.6482L23.7748 57.7486L24.8034 58.9715C25.854 59.091 26.9213 59.1547 28.0037 59.1547C29.3704 59.1547 30.7137 59.0548 32.0281 58.8655C32.0329 56.7584 32.0359 54.3114 32.0371 54.278C32.0767 53.0617 32.6081 52.8017 33.8941 50.4201C34.0498 50.1549 34.3355 49.9765 34.6487 49.9518L30.2322 13.9299Z" fill="#1D2E79"/><g id="Group_2"><path id="Vector_3" d="M23.2409 17.9968C22.6111 17.0448 22.686 16.0687 22.8915 15.3679C23.1184 14.5937 23.5345 14.02 23.6564 13.8627L24.7934 12.7871V6.21545C24.7934 5.7654 24.4853 5.38689 24.0692 5.27717C22.9708 3.04325 24.457 1.14064 24.9044 0.643383C24.9838 0.642583 25.063 0.640869 25.1425 0.640869C28.8633 0.640869 32.4564 1.47766 35.6503 2.98736V18.7735L23.2409 17.9968Z" fill="#2A428B"/><path id="Vector_4" d="M48.0907 26.6254C47.3821 25.7692 47.1343 24.6225 47.4252 23.5499C47.537 23.0148 47.9269 22.0862 47.9765 20.7327L32.8915 18.2732L23.8249 19.416L23.4989 31.1861C22.8907 32.0387 21.2214 34.8604 23.6535 37.353V41.7597L23.664 41.7883C23.6841 41.8431 24.1742 43.1475 25.772 44.8348C28.3416 47.5485 31.7986 49.1481 34.3349 50.0287C34.5451 49.9378 34.7895 49.9189 35.0267 50.0015C37.0686 50.6209 38.4834 51.5032 40.8594 51.3983C42.017 51.3472 43.0891 50.7855 43.7719 49.8493C45.318 47.729 44.9035 45.7108 44.9718 45.0583C44.9718 43.2302 46.4126 42.4602 46.906 41.8611C47.6618 41.1305 47.1932 40.2178 47.1823 40.0383C47.1435 39.8843 47.1971 39.7219 47.3198 39.6212L48.6844 38.5024C48.8052 38.4033 48.8752 38.2554 48.8752 38.0992V36.14C48.8752 35.9997 48.9639 35.8752 49.0965 35.8293C49.9281 35.5409 52.8205 34.4532 52.8205 33.2735C52.8205 32.51 50.32 29.3188 48.0907 26.6254Z" fill="#2A428B"/></g><path id="Vector_5" d="M36.6263 28.7546C35.9953 28.7546 35.4835 29.2664 35.4835 29.8975V36.4057H23.8264C23.1952 36.4057 22.6836 36.9174 22.6836 37.5485V44.0427C22.6836 44.6738 23.1952 45.1856 23.8264 45.1856C24.4575 45.1856 24.9693 44.6738 24.9693 44.0427V38.6914H36.6263C37.2574 38.6914 37.7692 38.1796 37.7692 37.5485V29.8975C37.7692 29.2664 37.2575 28.7546 36.6263 28.7546Z" fill="#02C0FC"/><path id="Vector_6" d="M11.3898 11.5678C11.3898 12.1988 11.9016 12.7106 12.5327 12.7106C13.1638 12.7106 13.6755 12.1988 13.6755 11.5678V7.35796H22.6809V12.7867C22.6809 13.4178 23.1926 13.9296 23.8238 13.9296C24.4549 13.9296 24.9666 13.4178 24.9666 12.7867V6.21511C24.9666 5.58403 24.4549 5.07227 23.8238 5.07227H11.9109C10.9922 5.76632 10.1301 6.531 9.33203 7.35796H11.3898V11.5678Z" fill="#95DB76"/><g id="Group_3"><path id="Vector_7" d="M35.0881 18.2725L33.6297 17.6304H23.8323C23.2011 17.6304 22.6895 18.1421 22.6895 18.7732V29.8975C22.6895 30.5286 23.2011 31.0403 23.8323 31.0403C24.4634 31.0403 24.9751 30.5286 24.9751 29.8975V19.916H34.4667C34.7818 19.3651 35.0881 18.2725 35.0881 18.2725Z" fill="#FEF156"/></g><path id="Vector_8" d="M16.5437 36.4055H8.03906C8.66614 37.1807 9.37494 37.9468 10.1744 38.6912H15.4008V50.6911C15.4008 51.3222 15.9125 51.834 16.5437 51.834H22.685V58.6481C23.4368 58.7925 24.1988 58.9077 24.9707 58.9908V50.6911C24.9707 50.06 24.4589 49.5483 23.8278 49.5483H17.6865V37.5484C17.6865 36.9173 17.1748 36.4055 16.5437 36.4055Z" fill="#9957BC"/><path id="Vector_9" d="M13.6784 29.5292V18.7737C13.6784 18.1426 13.1666 17.6309 12.5356 17.6309C11.9045 17.6309 11.3927 18.1426 11.3927 18.7737V28.3863H3.95117C4.14854 29.1112 4.3962 29.8783 4.70717 30.672H12.5357C13.1668 30.672 13.6784 30.1602 13.6784 29.5292Z" fill="#1D8DF2"/><g id="Group_4"><g id="Group_5"><path id="Vector_10" d="M23.8299 31.8436C25.108 31.8436 26.1442 30.8075 26.1442 29.5294C26.1442 28.2512 25.108 27.2151 23.8299 27.2151C22.5518 27.2151 21.5156 28.2512 21.5156 29.5294C21.5156 30.8075 22.5518 31.8436 23.8299 31.8436Z" fill="#FFFBB3"/></g></g><g id="Group_6"><g id="Group_7"><path id="Vector_11" d="M12.5408 21.0878C13.819 21.0878 14.8551 20.0516 14.8551 18.7735C14.8551 17.4954 13.819 16.4592 12.5408 16.4592C11.2627 16.4592 10.2266 17.4954 10.2266 18.7735C10.2266 20.0516 11.2627 21.0878 12.5408 21.0878Z" fill="#27A6FF"/></g></g><g id="Group_8"><g id="Group_9"><path id="Vector_12" d="M23.8299 15.1012C25.108 15.1012 26.1442 14.0651 26.1442 12.7869C26.1442 11.5088 25.108 10.4727 23.8299 10.4727C22.5518 10.4727 21.5156 11.5088 21.5156 12.7869C21.5156 14.0651 22.5518 15.1012 23.8299 15.1012Z" fill="#BAEE63"/></g></g><g id="Group_10"><g id="Group_11"><path id="Vector_13" d="M16.6424 53.0973C17.9205 53.0973 18.9567 52.0612 18.9567 50.783C18.9567 49.5049 17.9205 48.4688 16.6424 48.4688C15.3643 48.4688 14.3281 49.5049 14.3281 50.783C14.3281 52.0612 15.3643 53.0973 16.6424 53.0973Z" fill="#BB81E3"/></g></g><g id="Group_12"><g id="Group_13"><path id="Vector_14" d="M23.8299 46.3575C25.108 46.3575 26.1442 45.3214 26.1442 44.0433C26.1442 42.7651 25.108 41.729 23.8299 41.729C22.5518 41.729 21.5156 42.7651 21.5156 44.0433C21.5156 45.3214 22.5518 46.3575 23.8299 46.3575Z" fill="#64F9EA"/></g></g><g id="Group_14"><g id="Group_15"><path id="Vector_15" d="M36.6268 31.8431C37.9049 31.8431 38.941 30.807 38.941 29.5289C38.941 28.2507 37.9049 27.2146 36.6268 27.2146C35.3486 27.2146 34.3125 28.2507 34.3125 29.5289C34.3125 30.807 35.3486 31.8431 36.6268 31.8431Z" fill="#64F9EA"/></g></g><path id="Vector_16" d="M42.635 20.904H36.4444C34.8003 20.904 33.4551 19.5588 33.4551 17.9147V5.79306C33.4551 4.14896 34.8003 2.80371 36.4444 2.80371H42.5053L45.0032 10.1207L42.635 20.904Z" fill="#FE3D97"/><path id="Vector_17" d="M48.5681 2.80371H42.2787C42.2787 2.80371 39.9359 4.18679 40.9359 6.78654C41.9358 9.38628 42.9358 16.8434 42.9358 16.8434C42.9358 16.8434 40.4431 18.5934 42.4085 20.904H48.5681C50.2122 20.904 51.5575 19.5588 51.5575 17.9147V5.79306C51.5575 4.14884 50.2122 2.80371 48.5681 2.80371Z" fill="#FD77A6"/><g id="Group_16"><path id="Vector_18" d="M42.8043 15.6756H37.8737C37.223 15.6756 36.6953 15.148 36.6953 14.4972C36.6953 13.8465 37.2229 13.3188 37.8737 13.3188H42.8043C43.455 13.3188 43.9826 13.8464 43.9826 14.4972C43.9826 15.1481 43.455 15.6756 42.8043 15.6756Z" fill="#ADE9F7"/></g><g id="Group_17"><path id="Vector_19" d="M43.8275 17.392C43.3512 17.392 42.903 17.1013 42.7249 16.6294L40.3449 10.3234L37.942 16.6328C37.7104 17.2408 37.0295 17.5462 36.4214 17.3145C35.8133 17.083 35.5079 16.4021 35.7396 15.794L39.0623 7.06968C39.0657 7.06066 39.0692 7.05186 39.0728 7.04294C39.2855 6.52295 39.786 6.18661 40.3477 6.18604H40.3492C40.9104 6.18604 41.4107 6.52123 41.6243 7.04043C41.6287 7.05106 41.633 7.0618 41.637 7.07266L44.9296 15.7973C45.1594 16.4062 44.8521 17.0861 44.2433 17.3158C44.1063 17.3675 43.9657 17.392 43.8275 17.392Z" fill="#E8F8FC"/></g><g id="Group_18"><path id="Vector_20" d="M47.444 17.3919C46.7933 17.3919 46.2656 16.8642 46.2656 16.2135V7.36467C46.2656 6.71393 46.7933 6.18628 47.444 6.18628C48.0948 6.18628 48.6223 6.71382 48.6223 7.36467V16.2136C48.6224 16.8644 48.0948 17.3919 47.444 17.3919Z" fill="#E8F8FC"/></g></g></svg>