<svg xmlns="http://www.w3.org/2000/svg" width="65" height="65" viewBox="0 0 65 65" fill="none"><g id="Group 401"><g id="surface1"><path id="Vector" d="M31.1922 14.1899C31.1922 15.2734 30.3139 16.1517 29.2304 16.1517C28.1468 16.1517 27.2686 15.2734 27.2686 14.1899C27.2686 13.1068 28.1468 12.228 29.2304 12.228C30.3139 12.228 31.1922 13.1068 31.1922 14.1899Z" fill="#FF2C5C"/><path id="Vector_2" d="M38.5164 51.3334C38.5164 52.4165 37.6377 53.2952 36.5546 53.2952C35.471 53.2952 34.5928 52.4165 34.5928 51.3334C34.5928 50.2498 35.471 49.3716 36.5546 49.3716C37.6377 49.3716 38.5164 50.2498 38.5164 51.3334Z" fill="#FF2C5C"/><path id="Vector_3" d="M53.6151 28.184C53.6151 29.2676 52.7368 30.1458 51.6532 30.1458C50.5697 30.1458 49.6914 29.2676 49.6914 28.184C49.6914 27.1004 50.5697 26.2222 51.6532 26.2222C52.7368 26.2222 53.6151 27.1004 53.6151 28.184Z" fill="#FF2C5C"/><path id="Vector_4" d="M18.6365 36.685C18.6365 37.7685 17.7583 38.6468 16.6747 38.6468C15.5911 38.6468 14.7129 37.7685 14.7129 36.685C14.7129 35.6014 15.5911 34.7231 16.6747 34.7231C17.7583 34.7231 18.6365 35.6014 18.6365 36.685Z" fill="#FF2C5C"/><path id="Vector_5" d="M29.2304 11.2759C27.6236 11.2759 26.3164 12.5831 26.3164 14.1898C26.3164 15.4633 27.1376 16.5479 28.2782 16.9436V22.7279C28.2782 23.2536 28.7047 23.6801 29.2304 23.6801C29.756 23.6801 30.1825 23.2536 30.1825 22.7279V16.9436C31.3231 16.5479 32.1443 15.4633 32.1443 14.1898C32.1443 12.5831 30.8371 11.2759 29.2304 11.2759ZM29.2304 15.1995C28.6735 15.1995 28.2207 14.7468 28.2207 14.1898C28.2207 13.6334 28.6735 13.1802 29.2304 13.1802C29.7873 13.1802 30.2401 13.6334 30.2401 14.1898C30.2401 14.7468 29.7873 15.1995 29.2304 15.1995Z" fill="#50475E"/><path id="Vector_6" d="M37.5067 48.5796V41.5981C37.5067 41.0725 37.0803 40.646 36.5546 40.646C36.0284 40.646 35.6024 41.0725 35.6024 41.5981V48.5796C34.4619 48.9753 33.6406 50.0599 33.6406 51.3334C33.6406 52.9401 34.9473 54.2473 36.5546 54.2473C38.1613 54.2473 39.4686 52.9401 39.4686 51.3334C39.4681 50.0599 38.6468 48.9753 37.5067 48.5796ZM36.5546 52.343C35.9977 52.343 35.5449 51.8898 35.5449 51.3334C35.5449 50.7765 35.9977 50.3237 36.5546 50.3237C37.111 50.3237 37.5643 50.7765 37.5643 51.3334C37.5643 51.8898 37.111 52.343 36.5546 52.343Z" fill="#50475E"/><path id="Vector_7" d="M48.9001 27.2318H41.5557C41.03 27.2318 40.6035 27.6583 40.6035 28.184C40.6035 28.7097 41.03 29.1361 41.5557 29.1361H48.9001C49.2953 30.2767 50.3799 31.098 51.6534 31.098C53.2601 31.098 54.5674 29.7907 54.5674 28.184C54.5674 26.5772 53.2601 25.27 51.6534 25.27C50.3799 25.27 49.2953 26.0912 48.9001 27.2318ZM52.6631 28.184C52.6631 28.7409 52.2103 29.1937 51.6534 29.1937C51.0965 29.1937 50.6437 28.7409 50.6437 28.184C50.6437 27.6271 51.0965 27.1743 51.6534 27.1743C52.2103 27.1743 52.6631 27.6271 52.6631 28.184Z" fill="#50475E"/><path id="Vector_8" d="M23.613 35.7328H19.428C19.0328 34.5927 17.9482 33.771 16.6747 33.771C15.068 33.771 13.7607 35.0782 13.7607 36.685C13.7607 38.2917 15.068 39.5989 16.6747 39.5989C17.9482 39.5989 19.0328 38.7777 19.428 37.6371H23.613C24.1387 37.6371 24.5651 37.2111 24.5651 36.685C24.5651 36.1593 24.1387 35.7328 23.613 35.7328ZM16.6747 37.6946C16.1183 37.6946 15.665 37.2419 15.665 36.685C15.665 36.1281 16.1178 35.6753 16.6747 35.6753C17.2316 35.6753 17.6844 36.1281 17.6844 36.685C17.6844 37.2419 17.2316 37.6946 16.6747 37.6946Z" fill="#50475E"/><path id="Vector_9" d="M24.5658 30.5384C24.5658 30.0127 24.1393 29.5862 23.6136 29.5862H8.7998V14.1733C8.7998 13.6472 8.37332 13.2212 7.84766 13.2212C7.3215 13.2212 6.89551 13.6472 6.89551 14.1733V30.5384C6.89551 31.0641 7.3215 31.4905 7.84766 31.4905H23.6136C24.1393 31.4905 24.5658 31.0641 24.5658 30.5384Z" fill="#50475E"/><path id="Vector_10" d="M36.5547 24.8614C37.0804 24.8614 37.5068 24.4354 37.5068 23.9092V8.79932H52.6435C53.1692 8.79932 53.5957 8.37283 53.5957 7.84717C53.5957 7.32101 53.1692 6.89502 52.6435 6.89502H36.5547C36.0285 6.89502 35.6025 7.32101 35.6025 7.84717V23.9092C35.6025 24.4354 36.0285 24.8614 36.5547 24.8614Z" fill="#50475E"/><path id="Vector_11" d="M57.154 32.5225H41.5557C41.03 32.5225 40.6035 32.9489 40.6035 33.4746C40.6035 34.0003 41.03 34.4268 41.5557 34.4268H56.2019V49.3061C56.2019 49.8317 56.6279 50.2582 57.154 50.2582C57.6797 50.2582 58.1062 49.8317 58.1062 49.3061V33.4746C58.1062 32.9489 57.6797 32.5225 57.154 32.5225Z" fill="#50475E"/><path id="Vector_12" d="M29.2305 40.6465C28.7048 40.6465 28.2783 41.0725 28.2783 41.5986V55.8848H14.2188C13.6931 55.8848 13.2666 56.3113 13.2666 56.837C13.2666 57.3631 13.6931 57.7891 14.2188 57.7891H29.2305C29.7561 57.7891 30.1826 57.3631 30.1826 56.837V41.5986C30.1826 41.0725 29.7561 40.6465 29.2305 40.6465Z" fill="#50475E"/><path id="Vector_13" d="M14.125 15.6941H1.56956C0.702705 15.6941 0 14.9914 0 14.125V1.56956C0 0.702705 0.702705 0 1.56956 0H14.1245C14.9914 0 15.6941 0.702705 15.6941 1.56956V14.1245C15.6941 14.9914 14.9914 15.6941 14.125 15.6941Z" fill="#FF2C5C"/><path id="Vector_14" d="M14.1248 0H10.2012C11.0675 0 11.7702 0.702705 11.7702 1.56956V14.1245C11.7702 14.9914 11.0675 15.6941 10.2012 15.6941H14.1243C14.9912 15.6941 15.6939 14.9914 15.6939 14.1245V1.56956C15.6939 0.702705 14.9912 0 14.1248 0Z" fill="#E62753"/><path id="Vector_15" d="M3.92383 11.2479V4.44701C3.92383 4.1579 4.1579 3.92383 4.44701 3.92383H11.2474C11.5366 3.92383 11.7706 4.1579 11.7706 4.44701V11.2474C11.7706 11.5366 11.5366 11.7706 11.2474 11.7706H4.44701C4.1579 11.7706 3.92383 11.5366 3.92383 11.2479Z" fill="#685C79"/><path id="Vector_16" d="M41.1328 43.2245H23.8671C22.7122 43.2245 21.7754 42.2877 21.7754 41.1328V23.8671C21.7754 22.7122 22.7122 21.7754 23.8671 21.7754H41.1328C42.2877 21.7754 43.2245 22.7122 43.2245 23.8671V41.1328C43.2245 42.2877 42.2877 43.2245 41.1328 43.2245Z" fill="#ADE7FF"/><path id="Vector_17" d="M41.1326 21.7754H37.209C38.364 21.7754 39.3007 22.7122 39.3007 23.8671V41.1328C39.3007 42.2877 38.3645 43.2245 37.209 43.2245H41.1326C42.2876 43.2245 43.2244 42.2877 43.2244 41.1328V23.8671C43.2244 22.7122 42.2876 21.7754 41.1326 21.7754Z" fill="#82D2F5"/><path id="Vector_18" d="M25.6992 38.7779V26.2224C25.6992 25.9338 25.9338 25.6992 26.2224 25.6992H38.7779C39.067 25.6992 39.3011 25.9338 39.3011 26.2224V38.7779C39.3011 39.067 39.067 39.3011 38.7779 39.3011H26.2224C25.9333 39.3011 25.6992 39.067 25.6992 38.7779Z" fill="#FF2C5C"/><path id="Vector_19" d="M14.125 64.9997H1.56956C0.702705 64.9997 0 64.297 0 63.4302V50.8747C0 50.0084 0.702705 49.3057 1.56956 49.3057H14.1245C14.9914 49.3057 15.6941 50.0084 15.6941 50.8747V63.4302C15.6941 64.297 14.9914 64.9997 14.125 64.9997Z" fill="#4FB1F5"/><path id="Vector_20" d="M14.1248 49.3057H10.2012C11.0675 49.3057 11.7702 50.0084 11.7702 50.8747V63.4302C11.7702 64.297 11.0675 64.9997 10.2012 64.9997H14.1243C14.9912 64.9997 15.6939 64.297 15.6939 63.4302V50.8747C15.6939 50.0084 14.9912 49.3057 14.1248 49.3057Z" fill="#46A4E6"/><path id="Vector_21" d="M3.92383 60.5531V53.7527C3.92383 53.4636 4.1579 53.2295 4.44701 53.2295H11.2474C11.5366 53.2295 11.7706 53.4636 11.7706 53.7527V60.5531C11.7706 60.8422 11.5366 61.0763 11.2474 61.0763H4.44701C4.1579 61.0763 3.92383 60.8422 3.92383 60.5531Z" fill="#FF2C5C"/><path id="Vector_22" d="M63.4302 15.6941H50.8747C50.0084 15.6941 49.3057 14.9914 49.3057 14.125V1.56956C49.3057 0.702705 50.0084 0 50.8747 0H63.4302C64.297 0 64.9997 0.702705 64.9997 1.56956V14.1245C64.9997 14.9914 64.297 15.6941 63.4302 15.6941Z" fill="#FFD659"/><path id="Vector_23" d="M63.431 0H59.5078C60.3742 0 61.0769 0.702705 61.0769 1.56956V14.1245C61.0769 14.9914 60.3742 15.6941 59.5078 15.6941H63.431C64.2978 15.6941 65.0005 14.9914 65.0005 14.1245V1.56956C65.0005 0.702705 64.2978 0 63.431 0Z" fill="#FFBD54"/><path id="Vector_24" d="M53.2295 11.2479V4.44701C53.2295 4.1579 53.4636 3.92383 53.7527 3.92383H60.5531C60.8422 3.92383 61.0763 4.1579 61.0763 4.44701V11.2474C61.0763 11.5366 60.8422 11.7706 60.5531 11.7706H53.7527C53.4636 11.7706 53.2295 11.5366 53.2295 11.2479Z" fill="#FF2C5C"/><path id="Vector_25" d="M63.4302 64.9997H50.8747C50.0084 64.9997 49.3057 64.297 49.3057 63.4302V50.8747C49.3057 50.0084 50.0084 49.3057 50.8747 49.3057H63.4302C64.297 49.3057 64.9997 50.0084 64.9997 50.8747V63.4302C64.9997 64.297 64.297 64.9997 63.4302 64.9997Z" fill="#685C79"/><path id="Vector_26" d="M63.431 49.3057H59.5078C60.3742 49.3057 61.0769 50.0084 61.0769 50.8747V63.4302C61.0769 64.297 60.3742 64.9997 59.5078 64.9997H63.431C64.2978 64.9997 65.0005 64.297 65.0005 63.4302V50.8747C65.0005 50.0084 64.2978 49.3057 63.431 49.3057Z" fill="#594F69"/><path id="Vector_27" d="M53.2295 60.5531V53.7527C53.2295 53.4636 53.4636 53.2295 53.7527 53.2295H60.5531C60.8422 53.2295 61.0763 53.4636 61.0763 53.7527V60.5531C61.0763 60.8422 60.8422 61.0763 60.5531 61.0763H53.7527C53.4636 61.0763 53.2295 60.8422 53.2295 60.5531Z" fill="#FF2C5C"/></g></g></svg>