<svg xmlns="http://www.w3.org/2000/svg" width="56" height="55" viewBox="0 0 56 55" fill="none"><g id="Layer_37"><g id="Group"><g id="Group_2"><g id="Group_3"><path id="Vector" d="M0.647461 54.5438V37.1105C0.647461 36.7222 0.776916 36.3446 1.01425 36.0317L4.76845 31.9431V44.9965C4.76845 45.9027 5.49124 46.6255 6.39742 46.6363H17.0559C16.9588 47.1541 16.8293 47.6611 16.6783 48.1681C16.1281 49.9482 14.6502 51.2859 12.8162 51.6634V54.5438" fill="#EFCDB1"/><path id="Vector_2" d="M13.4633 54.5438H12.1688V51.1025L12.7297 51.0162C14.3156 50.6925 15.5885 49.5166 16.0524 47.9632C16.1279 47.7366 16.1927 47.5101 16.2466 47.2835H6.39724C5.13505 47.2728 4.12098 46.2587 4.1102 44.9965V33.6045L1.5211 36.4417C1.37007 36.6359 1.29455 36.8732 1.29455 37.1105V54.5438H0V37.1105C0 36.5819 0.172607 36.0641 0.507032 35.6434L0.539396 35.6002L5.40475 30.271V44.9965C5.40475 45.5467 5.84705 45.989 6.39724 45.989H17.8324L17.6922 46.7549C17.5735 47.3375 17.4441 47.8769 17.293 48.3623C16.7321 50.1963 15.2973 51.6203 13.4633 52.1705V54.5438Z" fill="black"/></g><g id="Group_4"><path id="Vector_3" d="M52.0853 12.1146V44.9962C52.0853 45.9024 51.3518 46.636 50.4456 46.636H6.39851C5.49232 46.6252 4.76953 45.9024 4.76953 44.9962V12.1146C4.76953 11.2084 5.49232 10.4856 6.39851 10.4749H50.4456C51.3518 10.4749 52.0853 11.2084 52.0853 12.1146Z" fill="#D1D3D4"/><path id="Vector_4" d="M50.4454 47.2833H6.39837C5.13618 47.2725 4.12212 46.2584 4.11133 44.9963V12.1147C4.12212 10.8525 5.13618 9.83842 6.39837 9.82764H50.4454C51.7076 9.82764 52.7325 10.8525 52.7325 12.1147V44.9963C52.7325 46.2584 51.7076 47.2833 50.4454 47.2833ZM6.39837 11.1222C5.84818 11.1222 5.40588 11.5645 5.40588 12.1147V44.9963C5.40588 45.5464 5.84818 45.9887 6.39837 45.9887H50.4454C50.9956 45.9887 51.4379 45.5464 51.4379 44.9963V12.1147C51.4379 11.5645 50.9956 11.1222 50.4454 11.1222H6.39837Z" fill="black"/><g id="Group_5"><path id="Vector_5" d="M7.55273 13.0315H49.097V40.6162H7.55273V13.0315Z" fill="#73C9DF"/><path id="Vector_6" d="M49.7441 41.2635H6.90527V12.3843H49.7441V41.2635ZM8.19982 39.969H48.4496V13.6788H8.19982V39.969Z" fill="black"/></g><path id="Vector_7" d="M24.7812 43.0652H28.5462V44.3597H24.7812V43.0652Z" fill="black"/></g><g id="Group_6"><path id="Vector_8" d="M5.43764 51.4261C6.50565 50.9407 8.33959 50.2502 9.28893 47.1433C9.83911 45.3309 9.34287 42.634 9.34287 42.634L12.59 38.0815C13.2157 37.2616 13 36.0965 12.1262 35.4816C11.2631 34.8667 10.0441 35.0177 9.4076 35.816L5.25425 40.6598C5.25425 40.6598 3.62527 41.2531 2.87012 43.2489" fill="#EFCDB1"/><path id="Vector_9" d="M5.70697 52.0193L5.16758 50.8434L5.32939 50.7679C6.38661 50.2932 7.84298 49.6352 8.66286 46.9597C9.16989 45.32 8.70601 42.7848 8.70601 42.7525L8.65207 42.4828L12.0718 37.6929C12.2552 37.4448 12.3308 37.1427 12.2876 36.8407C12.2337 36.5063 12.0395 36.2042 11.759 36.01C11.1657 35.6001 10.335 35.6972 9.90347 36.2258H9.89268L5.64224 41.2098L5.48042 41.2637C5.42649 41.2853 4.11036 41.8031 3.47387 43.4753L2.26562 43.0222C2.71872 41.7492 3.65727 40.7135 4.86551 40.1202L8.91098 35.4059C9.77402 34.3379 11.3491 34.1437 12.5034 34.9528C13.0751 35.3412 13.4527 35.9561 13.5714 36.6357C13.6685 37.283 13.5066 37.9411 13.1183 38.4589L10.0221 42.7956C10.1408 43.5616 10.3997 45.7299 9.90347 47.3373C8.91098 50.5737 7.00152 51.4367 5.858 51.9438L5.70697 52.0193Z" fill="black"/></g></g><g id="Group_7"><g id="Group_8"><path id="Vector_10" d="M39.3119 54.749V52.6238L31.2857 46.9062C31.2857 46.9062 29.9695 45.8058 30.4766 44.8673C31.523 42.9578 33.7345 43.9071 33.7345 43.9071L39.3119 46.712L39.1393 34.0146C39.1285 33.1084 39.8513 32.3641 40.7575 32.3533H40.779H41.6421C42.5483 32.3533 43.2818 33.0869 43.2926 33.993L43.325 40.4766L52.3437 40.5952C54.0158 40.6168 55.3535 41.9761 55.3535 43.6482V54.749" fill="#EFCDB1"/><path id="Vector_11" d="M56.0012 54.749H54.7066V43.6483C54.7066 42.3322 53.6494 41.2641 52.3333 41.2426L42.6889 41.1131L42.6457 34.0039C42.6457 33.4537 42.1926 33.0006 41.6425 33.0006H40.7794C40.5205 33.0006 40.2616 33.1085 40.0782 33.2919C39.8948 33.4861 39.7869 33.7342 39.7869 34.0039L39.9811 47.7585L33.4652 44.5005C33.2387 44.4034 31.7607 43.8748 31.0487 45.1802C30.8653 45.5254 31.4371 46.1834 31.6852 46.3992L39.9595 52.2894V54.749H38.665V52.9475L30.8977 47.4241L30.8761 47.4025C30.2288 46.8631 29.3119 45.6656 29.916 44.5653C30.9624 42.645 33.0337 42.9039 33.983 43.3139H34.0262L38.6542 45.644L38.4924 34.0147C38.4816 32.7525 39.4957 31.7168 40.7578 31.7061H40.7794H41.6425C42.9046 31.7061 43.9295 32.7309 43.9403 33.9931L43.9726 39.8401L52.3549 39.948C54.3722 39.9804 55.9904 41.6309 56.0012 43.6483V54.749Z" fill="black"/></g><path id="Vector_12" d="M42.6777 40.5088H43.9723V43.907H42.6777V40.5088Z" fill="black"/><path id="Vector_13" d="M46.8203 40.5088H48.1149V43.907H46.8203V40.5088Z" fill="black"/><path id="Vector_14" d="M50.7686 40.5088H52.0631V43.907H50.7686V40.5088Z" fill="black"/></g><g id="Group_9"><g id="Group_10"><path id="Vector_15" d="M31.4805 33.1187H39.1399V34.4132H31.4805V33.1187Z" fill="black"/><path id="Vector_16" d="M31.4805 30.5188H38.0395V31.8133H31.4805V30.5188Z" fill="black"/><path id="Vector_17" d="M31.4805 27.9189H42.5705V29.2135H31.4805V27.9189Z" fill="black"/></g><path id="Vector_18" d="M31.6738 25.2004H32.9684V26.4842H31.6738V25.2004Z" fill="black"/><path id="Vector_19" d="M40.6602 25.2004H41.9547V26.4842H40.6602V25.2004Z" fill="black"/><path id="Vector_20" d="M35.9678 25.2004H37.2623V26.4842H35.9678V25.2004Z" fill="black"/></g><g id="Group_11"><g id="Group_12"><path id="Vector_21" d="M19.5678 34.5754C23.9529 34.5754 27.5077 31.0206 27.5077 26.6355C27.5077 22.2504 23.9529 18.6956 19.5678 18.6956C15.1827 18.6956 11.6279 22.2504 11.6279 26.6355C11.6279 31.0206 15.1827 34.5754 19.5678 34.5754Z" fill="#D22435"/><path id="Vector_22" d="M19.5677 35.2227C14.821 35.2227 10.9805 31.3822 10.9805 26.6355C10.9805 21.8888 14.821 18.0483 19.5677 18.0483C24.3143 18.0483 28.1548 21.8888 28.1548 26.6355C28.144 31.3714 24.3035 35.2119 19.5677 35.2227ZM19.5677 19.3429C15.5438 19.3429 12.275 22.6116 12.275 26.6355C12.275 30.6594 15.5438 33.9282 19.5677 33.9282C23.5915 33.9282 26.8603 30.6594 26.8603 26.6355C26.8495 22.6116 23.5915 19.3537 19.5677 19.3429Z" fill="black"/></g><g id="Group_13"><path id="Vector_23" d="M19.0391 18.6958H20.3336V35.3631H19.0391V18.6958Z" fill="black"/><g id="Group_14"><path id="Vector_24" d="M19.5673 20.2818C20.4431 20.2818 21.1531 19.5718 21.1531 18.6959C21.1531 17.8201 20.4431 17.1101 19.5673 17.1101C18.6914 17.1101 17.9814 17.8201 17.9814 18.6959C17.9814 19.5718 18.6914 20.2818 19.5673 20.2818Z" fill="#D22435"/><path id="Vector_25" d="M19.5671 20.9289C18.3373 20.9181 17.334 19.9149 17.3448 18.685C17.3556 17.4552 18.3589 16.4519 19.5887 16.4627C20.8185 16.4735 21.811 17.466 21.811 18.6958C21.811 19.9257 20.8077 20.9289 19.5779 20.9289H19.5671ZM19.5671 17.7573C19.0493 17.7681 18.6286 18.1888 18.6394 18.7066C18.6502 19.2244 19.0709 19.6452 19.5887 19.6344C20.1065 19.6236 20.5165 19.2137 20.5165 18.6958C20.5165 18.178 20.0957 17.7573 19.5779 17.7573H19.5671Z" fill="black"/></g><g id="Group_15"><path id="Vector_26" d="M19.6864 36.5388C20.5622 36.5388 21.2722 35.8288 21.2722 34.953C21.2722 34.0772 20.5622 33.3672 19.6864 33.3672C18.8106 33.3672 18.1006 34.0772 18.1006 34.953C18.1006 35.8288 18.8106 36.5388 19.6864 36.5388Z" fill="#D22435"/><path id="Vector_27" d="M19.6864 37.1968C18.4458 37.2076 17.4425 36.2044 17.4317 34.9637C17.4209 33.7231 18.4242 32.7199 19.6648 32.7091C20.9054 32.6983 21.9087 33.7016 21.9195 34.9422V34.953C21.9303 36.1828 20.927 37.1861 19.6972 37.1968H19.6864ZM19.6864 34.0144C19.1578 34.0036 18.7371 34.4243 18.7263 34.953C18.7155 35.4816 19.1362 35.9023 19.6648 35.9131C20.1934 35.9239 20.6142 35.5031 20.6249 34.9745C20.6249 34.9637 20.6249 34.9637 20.6249 34.953C20.6249 34.4351 20.2042 34.0144 19.6864 34.0144Z" fill="black"/></g></g><g id="Group_16"><g id="Group_17"><path id="Vector_28" d="M12.3252 30.384L26.5924 21.767L27.2617 22.8752L12.9945 31.4922L12.3252 30.384Z" fill="black"/></g><g id="Group_18"><path id="Vector_29" d="M12.6962 32.655C13.572 32.655 14.282 31.9451 14.282 31.0692C14.282 30.1934 13.572 29.4834 12.6962 29.4834C11.8203 29.4834 11.1104 30.1934 11.1104 31.0692C11.1104 31.9451 11.8203 32.655 12.6962 32.655Z" fill="#D22435"/><path id="Vector_30" d="M12.6966 33.3022C11.9091 33.3022 11.1863 32.8923 10.7763 32.2235C10.4743 31.7164 10.3772 31.1015 10.5282 30.5297C10.6577 29.958 11.0245 29.4617 11.5423 29.1597C12.5995 28.5232 13.9696 28.8576 14.6061 29.9148C15.2425 30.972 14.9081 32.3421 13.8401 32.9894C13.4949 33.1944 13.1065 33.3022 12.6966 33.3022ZM12.6966 30.1306C12.524 30.1306 12.3622 30.1737 12.2111 30.26C11.9954 30.3895 11.8443 30.5945 11.7796 30.8426C11.7149 31.0799 11.758 31.3388 11.8875 31.5546C12.017 31.7704 12.2219 31.9214 12.47 31.9861C12.7074 32.0401 12.9663 32.0077 13.1821 31.8782C13.6244 31.6085 13.7646 31.026 13.4949 30.5837C13.3223 30.3032 13.0202 30.1306 12.6966 30.1306Z" fill="black"/></g><g id="Group_19"><path id="Vector_31" d="M26.5595 24.1648C27.4353 24.1648 28.1453 23.4548 28.1453 22.579C28.1453 21.7032 27.4353 20.9932 26.5595 20.9932C25.6836 20.9932 24.9736 21.7032 24.9736 22.579C24.9736 23.4548 25.6836 24.1648 26.5595 24.1648Z" fill="#D22435"/><path id="Vector_32" d="M26.5701 24.8228C25.3294 24.812 24.3262 23.798 24.3262 22.5574C24.3262 22.3848 24.3477 22.2122 24.3909 22.0395C24.5419 21.4678 24.8979 20.9715 25.405 20.6695C25.912 20.3566 26.5269 20.2703 27.0987 20.4106C27.6704 20.5508 28.1667 20.9176 28.4795 21.4246C28.7816 21.9317 28.8787 22.5466 28.7276 23.1183C28.4903 24.1108 27.5949 24.812 26.5701 24.8228ZM26.5593 21.6404C26.3867 21.6404 26.2141 21.6835 26.0738 21.7806C25.6315 22.0503 25.4913 22.6221 25.761 23.0644C26.0307 23.5067 26.6024 23.6469 27.0447 23.3772C27.2605 23.2478 27.4115 23.0428 27.4762 22.7947C27.541 22.5574 27.4978 22.2985 27.3684 22.0827C27.2389 21.8669 27.0339 21.7159 26.7858 21.662C26.7103 21.6512 26.6348 21.6404 26.5593 21.6404Z" fill="black"/></g></g><g id="Group_20"><g id="Group_21"><path id="Vector_33" d="M12.0811 23.709L12.6545 22.5478L27.6051 29.9314L27.0317 31.0926L12.0811 23.709Z" fill="black"/></g><g id="Group_22"><path id="Vector_34" d="M12.3173 24.8555C13.1931 24.8555 13.9031 24.1455 13.9031 23.2697C13.9031 22.3938 13.1931 21.6838 12.3173 21.6838C11.4414 21.6838 10.7314 22.3938 10.7314 23.2697C10.7314 24.1455 11.4414 24.8555 12.3173 24.8555Z" fill="#D22435"/><path id="Vector_35" d="M12.3173 25.5029C11.9721 25.5029 11.6377 25.4274 11.3249 25.2763C10.2029 24.7369 9.73903 23.3885 10.2784 22.2665C10.8178 21.1446 12.1663 20.6807 13.2883 21.2201C14.4102 21.7595 14.8741 23.108 14.3347 24.2299C13.9571 25.0066 13.1804 25.5029 12.3173 25.5029ZM12.3173 22.3312C11.7995 22.3312 11.3788 22.752 11.3788 23.2698C11.3788 23.7876 11.7995 24.2083 12.3173 24.2083C12.8352 24.2083 13.2559 23.7876 13.2559 23.2698C13.2559 22.9138 13.0509 22.5901 12.7381 22.4283C12.6086 22.3636 12.4684 22.3312 12.3173 22.3312Z" fill="black"/></g><g id="Group_23"><path id="Vector_36" d="M26.9364 31.9649C27.8122 31.9649 28.5222 31.2549 28.5222 30.379C28.5222 29.5032 27.8122 28.7932 26.9364 28.7932C26.0606 28.7932 25.3506 29.5032 25.3506 30.379C25.3506 31.2549 26.0606 31.9649 26.9364 31.9649Z" fill="#D22435"/><path id="Vector_37" d="M26.936 32.623C26.5908 32.623 26.2456 32.5475 25.9435 32.3857C24.8432 31.8355 24.3901 30.4978 24.9295 29.3866C25.4689 28.2755 26.8174 27.8331 27.9285 28.3725C28.4571 28.6315 28.8671 29.0953 29.0505 29.6563C29.4496 30.8214 28.8239 32.0944 27.6588 32.4935H27.648C27.4215 32.5798 27.1734 32.623 26.936 32.623ZM26.936 29.4405C26.58 29.4405 26.2564 29.6455 26.0946 29.9692C25.868 30.433 26.0514 30.994 26.5153 31.2313C26.7419 31.3392 27.0008 31.3608 27.2381 31.2745C27.7236 31.1019 27.9932 30.5841 27.8314 30.0878C27.7451 29.8505 27.5833 29.6563 27.3568 29.5376C27.2273 29.4729 27.0871 29.4405 26.936 29.4405Z" fill="black"/></g></g><g id="Group_24"><path id="Vector_38" d="M19.5673 28.2215C20.4431 28.2215 21.1531 27.5115 21.1531 26.6356C21.1531 25.7598 20.4431 25.0498 19.5673 25.0498C18.6914 25.0498 17.9814 25.7598 17.9814 26.6356C17.9814 27.5115 18.6914 28.2215 19.5673 28.2215Z" fill="#D22435"/><path id="Vector_39" d="M19.5672 28.8687C19.222 28.8687 18.8876 28.7932 18.5747 28.6421C17.5067 28.0164 17.1399 26.6464 17.7656 25.5784C18.3266 24.6075 19.5241 24.2083 20.5597 24.629C21.6709 25.1684 22.1239 26.5061 21.5738 27.6173V27.6281C21.3149 28.1567 20.851 28.5666 20.29 28.75C20.0527 28.8363 19.8153 28.8687 19.5672 28.8687ZM19.5672 25.697C19.4593 25.697 19.3622 25.7078 19.2652 25.751C18.7797 25.902 18.51 26.4306 18.661 26.9161C18.7365 27.1642 18.9199 27.3692 19.1573 27.477C19.373 27.5957 19.6319 27.6065 19.8693 27.531C20.3655 27.3692 20.6352 26.8406 20.4734 26.3443C20.3979 26.107 20.2253 25.902 19.9879 25.7941C19.8585 25.7294 19.7182 25.697 19.5672 25.697Z" fill="black"/></g></g><g id="Group_25"><path id="Vector_40" d="M14.058 7.56225L13.2705 6.53739C14.6729 5.44781 16.5932 5.42624 17.9309 6.49424L17.1326 7.50831C16.2588 6.81788 14.9966 6.83946 14.058 7.56225Z" fill="black"/><path id="Vector_41" d="M12.3857 5.4155L11.4795 4.48774C13.8744 2.16834 17.6394 2.14676 19.8617 4.44459L18.9339 5.35077C17.2079 3.55998 14.2628 3.59234 12.3857 5.4155Z" fill="black"/><path id="Vector_42" d="M10.2929 3.56005L9.38672 2.63229C11.0588 0.970949 13.3243 0.0431884 15.6761 0.0216126H15.7516C18.0278 3.6737e-05 20.2178 0.91701 21.8036 2.54599L20.8759 3.45217C19.5166 2.04974 17.6395 1.2838 15.6869 1.31616C13.6695 1.33774 11.7277 2.13604 10.2929 3.56005Z" fill="black"/></g><g id="Group_26"><g id="Group_27"><path id="Vector_43" d="M52.4523 19.5584H49.7984L45.4401 24.9092V19.5584H30.5852C29.2906 19.5476 28.2442 18.5012 28.2334 17.2067V2.99898C28.2442 1.70443 29.2906 0.658005 30.5852 0.647217H52.4523C53.7468 0.647217 54.804 1.70443 54.804 2.99898V17.2067C54.804 18.5012 53.7468 19.5584 52.4523 19.5584Z" fill="#3860AF"/><path id="Vector_44" d="M45.4399 25.5566C45.3644 25.5566 45.2889 25.5458 45.2242 25.5242C44.9653 25.4271 44.7927 25.179 44.7927 24.9093V20.2058H30.585C28.9344 20.195 27.5967 18.8573 27.5859 17.2067V2.99904C27.5967 1.34849 28.9344 0.0107879 30.585 0H52.4521C54.1134 0 55.4511 1.3377 55.4511 2.99904V17.2067C55.4511 18.8681 54.1134 20.2058 52.4521 20.2058H50.1111L45.9362 25.3192C45.8175 25.4703 45.6341 25.5566 45.4399 25.5566ZM30.585 1.29455C29.6464 1.29455 28.8805 2.06049 28.8805 2.99904V17.2067C28.8805 18.1453 29.6464 18.9112 30.585 18.9112H45.4399C45.7959 18.9112 46.0872 19.2025 46.0872 19.5585V23.0861L49.302 19.1486C49.4207 18.9975 49.6041 18.9112 49.7983 18.9112H52.4521C53.3906 18.9112 54.1566 18.1453 54.1566 17.2067V2.99904C54.1566 2.06049 53.3906 1.29455 52.4521 1.29455H30.585Z" fill="black"/></g><g id="Group_28"><path id="Vector_45" d="M34.8032 16.5379L33.9941 15.5346L36.7127 13.3123L38.5898 14.6716L40.3698 12.5787L42.9805 14.2508L45.0302 12.4385L45.7853 13.6251L48.903 12.4493L49.3561 13.6575L45.2567 15.211L44.7497 14.4127L43.0991 15.8582L40.6287 14.2724L38.7948 16.4192L36.7558 14.9413L34.8032 16.5379Z" fill="black"/><path id="Vector_46" d="M49.7441 17.498H32.6992V12.7837H33.9938V16.2035H49.7441V17.498Z" fill="black"/><g id="Group_29"><path id="Vector_47" d="M47.6934 4.48779H48.9879V11.7912H47.6934V4.48779Z" fill="black"/><path id="Vector_48" d="M38.7178 2.39502H40.0123V11.7913H38.7178V2.39502Z" fill="black"/><path id="Vector_49" d="M34.4131 9.21289H35.7076V11.6941H34.4131V9.21289Z" fill="black"/><path id="Vector_50" d="M43.4424 6.64551H44.7369V11.8021H43.4424V6.64551Z" fill="black"/></g></g></g></g></g></svg>