<svg xmlns="http://www.w3.org/2000/svg" width="65" height="65" viewBox="0 0 65 65" fill="none"><g id="Vactor"><path id="Vector" d="M20.9678 32.5002V8.3873C20.9678 7.8312 21.1887 7.29788 21.5819 6.90466C21.9751 6.51144 22.5084 6.29053 23.0645 6.29053H58.7097C59.2658 6.29053 59.7991 6.51144 60.1924 6.90466C60.5856 7.29788 60.8065 7.8312 60.8065 8.3873V32.5002H20.9678Z" fill="#C8CDED"/><path id="Vector_2" d="M25.1611 10.4839H56.6127V32.5H25.1611V10.4839Z" fill="#E2E7F6"/><path id="Vector_3" d="M15.7256 59.7581H24.1127L30.403 63.9516L63.9514 56.6129V55.5645C63.9514 54.4523 63.5096 53.3857 62.7231 52.5992C61.9367 51.8128 60.87 51.371 59.7578 51.371H34.5966V51.0984C34.5963 50.5985 34.4175 50.1152 34.0923 49.7355L28.3062 42.9839H15.7256V59.7581Z" fill="#FBE1CA"/><path id="Vector_4" d="M1.04883 40.8872H9.43592V63.9517H1.04883V40.8872Z" fill="#D5883E"/><path id="Vector_5" d="M9.43555 40.8872H15.7259V61.8549H9.43555V40.8872Z" fill="#F0AE42"/><path id="Vector_6" d="M13.6291 57.6614V40.8872H9.43555V59.7582H11.5323C12.0884 59.7582 12.6217 59.5373 13.015 59.144C13.4082 58.7508 13.6291 58.2175 13.6291 57.6614Z" fill="#F9D266"/><path id="Vector_7" d="M17.8223 32.5H63.9513V36.6935C63.9513 37.2496 63.7304 37.783 63.3372 38.1762C62.9439 38.5694 62.4106 38.7903 61.8545 38.7903H19.919C19.3629 38.7903 18.8296 38.5694 18.4364 38.1762C18.0432 37.783 17.8223 37.2496 17.8223 36.6935V32.5Z" fill="#9DA1BF"/><path id="Vector_8" d="M52.419 14.6774V10.4838H50.0801C49.8443 9.44899 49.4344 8.46171 48.8681 7.56407L50.5235 5.90866L47.5587 2.94382L45.9033 4.59923C45.0056 4.0329 44.0184 3.6231 42.9835 3.38729V1.04834H38.79V3.38729C37.7551 3.6231 36.7679 4.0329 35.8702 4.59923L34.2148 2.94382L31.25 5.90866L32.9054 7.56407C32.3391 8.46171 31.9292 9.44899 31.6934 10.4838H29.3545V14.6774H31.6934C31.9292 15.7122 32.3391 16.6995 32.9054 17.5971L31.25 19.2525L34.2148 22.2174L35.8702 20.562C36.7679 21.1283 37.7551 21.5381 38.79 21.7739V24.1129H42.9835V21.7739C44.0184 21.5381 45.0056 21.1283 45.9033 20.562L47.5587 22.2174L50.5235 19.2525L48.8681 17.5971C49.4344 16.6995 49.8443 15.7122 50.0801 14.6774H52.419Z" fill="#5E87CA"/><path id="Vector_9" d="M40.8874 17.8227C43.7825 17.8227 46.1294 15.4758 46.1294 12.5808C46.1294 9.68576 43.7825 7.33887 40.8874 7.33887C37.9924 7.33887 35.6455 9.68576 35.6455 12.5808C35.6455 15.4758 37.9924 17.8227 40.8874 17.8227Z" fill="#E2E7F6"/><path id="Vector_10" d="M1.04883 15.7256H26.2101V28.3062H1.04883V15.7256Z" fill="#3B5892"/><path id="Vector_11" d="M1.04883 15.7256H23.3721V25.1611H1.04883V15.7256Z" fill="#4C6CB5"/><g id="Group"><path id="Vector_12" d="M7.64645 25.9021L4.50129 22.757C4.30475 22.5604 4.19434 22.2938 4.19434 22.0158C4.19434 21.7378 4.30475 21.4712 4.50129 21.2746L7.64645 18.1294L9.12887 19.6118L6.72492 22.0158L9.12887 24.4197L7.64645 25.9021Z" fill="#5E87CA"/><path id="Vector_13" d="M19.6123 25.9021L18.1299 24.4197L20.5338 22.0158L18.1299 19.6118L19.6123 18.1294L22.7575 21.2746C22.954 21.4712 23.0644 21.7378 23.0644 22.0158C23.0644 22.2938 22.954 22.5604 22.7575 22.757L19.6123 25.9021Z" fill="#5E87CA"/><path id="Vector_14" d="M10.584 25.7397L14.7754 17.3569L16.6499 18.2942L12.4585 26.677L10.584 25.7397Z" fill="#5E87CA"/></g><path id="Vector_15" d="M59.7581 50.3227H35.5403C35.4243 49.8552 35.2027 49.4206 34.8924 49.0521L29.1022 42.3026C29.0039 42.1876 28.8818 42.0953 28.7445 42.032C28.6071 41.9687 28.4577 41.9358 28.3064 41.9356H16.7742V40.8873C16.7742 40.6092 16.6637 40.3425 16.4671 40.1459C16.2705 39.9493 16.0039 39.8389 15.7258 39.8389H1.04839C0.770338 39.8389 0.503676 39.9493 0.307065 40.1459C0.110455 40.3425 0 40.6092 0 40.8873V63.9518C0 64.2298 0.110455 64.4965 0.307065 64.6931C0.503676 64.8897 0.770338 65.0002 1.04839 65.0002H9.43548C9.71353 65.0002 9.98019 64.8897 10.1768 64.6931C10.3734 64.4965 10.4839 64.2298 10.4839 63.9518V62.9034H15.7258C16.0039 62.9034 16.2705 62.7929 16.4671 62.5963C16.6637 62.3997 16.7742 62.133 16.7742 61.855V60.8066H23.7984L29.8245 64.824C29.9959 64.9383 30.1972 64.9996 30.4032 65.0002C30.4786 64.9999 30.5538 64.9918 30.6276 64.976L64.176 57.6373C64.4095 57.5862 64.6186 57.4567 64.7685 57.2704C64.9183 57.0841 65 56.8522 65 56.6131V55.5647C64.9983 54.1749 64.4455 52.8426 63.4628 51.8599C62.4801 50.8772 61.1478 50.3244 59.7581 50.3227ZM8.3871 62.9034H2.09677V41.9356H8.3871V62.9034ZM14.6774 60.8066H10.4839V41.9356H14.6774V60.8066ZM62.9032 55.7744L30.6129 62.8331L24.6937 58.886C24.5215 58.7716 24.3196 58.7104 24.1129 58.7098H16.7742V44.0324H27.8242L33.2957 50.416C33.4587 50.6061 33.5484 50.8482 33.5484 51.0985V52.4195C33.5484 52.6976 33.4379 52.9642 33.2413 53.1608C33.0447 53.3574 32.778 53.4679 32.5 53.4679H31.2723C31.1345 53.468 30.998 53.4409 30.8706 53.3882C30.7433 53.3355 30.6275 53.2582 30.5301 53.1607L25.9025 48.5331L24.4201 50.0156L29.0477 54.6431C29.339 54.9364 29.6857 55.1688 30.0676 55.327C30.4495 55.4852 30.859 55.566 31.2723 55.5647H32.5C33.3341 55.5647 34.1341 55.2333 34.724 54.6435C35.3138 54.0536 35.6452 53.2537 35.6452 52.4195H59.7581C60.5922 52.4195 61.3922 52.7509 61.982 53.3407C62.5719 53.9305 62.9032 54.7305 62.9032 55.5647V55.7744Z" fill="black"/><path id="Vector_16" d="M63.9516 31.4516H61.8548V8.3871C61.8548 7.55295 61.5235 6.75296 60.9336 6.16313C60.3438 5.5733 59.5438 5.24194 58.7097 5.24194H51.3144C51.2993 5.21626 51.2828 5.19141 51.2651 5.1675L48.3002 2.20161C48.1036 2.00507 47.837 1.89466 47.559 1.89466C47.281 1.89466 47.0144 2.00507 46.8178 2.20161L45.7296 3.28984C45.1857 3.00548 44.6177 2.76972 44.0323 2.58532V1.04839C44.0323 0.770338 43.9218 0.503676 43.7252 0.307065C43.5286 0.110455 43.2619 0 42.9839 0H38.7903C38.5123 0 38.2456 0.110455 38.049 0.307065C37.8524 0.503676 37.7419 0.770338 37.7419 1.04839V2.58532C37.1565 2.76972 36.5885 3.00548 36.0446 3.28984L34.9564 2.20161C34.7598 2.00507 34.4932 1.89466 34.2152 1.89466C33.9372 1.89466 33.6706 2.00507 33.4739 2.20161L30.5081 5.1675C30.4907 5.19144 30.4746 5.21628 30.4598 5.24194H23.0645C22.2304 5.24194 21.4304 5.5733 20.8405 6.16313C20.2507 6.75296 19.9194 7.55295 19.9194 8.3871V14.6774H1.04839C0.770338 14.6774 0.503676 14.7879 0.307065 14.9845C0.110455 15.1811 0 15.4478 0 15.7258V28.3065C0 28.5845 0.110455 28.8512 0.307065 29.0478C0.503676 29.2444 0.770338 29.3548 1.04839 29.3548H19.9194V31.4516H17.8226C17.5445 31.4516 17.2779 31.5621 17.0813 31.7587C16.8846 31.9553 16.7742 32.222 16.7742 32.5V36.6936C16.7742 37.5277 17.1056 38.3277 17.6954 38.9175C18.2852 39.5073 19.0852 39.8387 19.9194 39.8387H61.8548C62.689 39.8387 63.489 39.5073 64.0788 38.9175C64.6686 38.3277 65 37.5277 65 36.6936V32.5C65 32.222 64.8895 31.9553 64.6929 31.7587C64.4963 31.5621 64.2297 31.4516 63.9516 31.4516ZM59.7581 8.3871V31.4516H57.6613V10.4839C57.6613 10.2058 57.5508 9.93916 57.3542 9.74255C57.1576 9.54594 56.8909 9.43548 56.6129 9.43548H50.8824C50.698 8.85006 50.4623 8.28208 50.1779 7.73815L50.5773 7.33871H58.7097C58.9877 7.33871 59.2544 7.44917 59.451 7.64578C59.6476 7.84239 59.7581 8.10905 59.7581 8.3871ZM27.2581 28.3065V15.7258C27.2581 15.4478 27.1476 15.1811 26.951 14.9845C26.7544 14.7879 26.4877 14.6774 26.2097 14.6774V11.5323H28.3064V14.6774C28.3064 14.9555 28.4169 15.2221 28.6135 15.4187C28.8101 15.6154 29.0768 15.7258 29.3548 15.7258H30.8918C31.0762 16.3112 31.3119 16.8792 31.5963 17.4231L30.5081 18.5114C30.3115 18.708 30.2011 18.9746 30.2011 19.2526C30.2011 19.5306 30.3115 19.7972 30.5081 19.9938L33.4739 22.9597C33.6706 23.1562 33.9372 23.2666 34.2152 23.2666C34.4932 23.2666 34.7598 23.1562 34.9564 22.9597L36.0446 21.8715C36.5885 22.1559 37.1565 22.3916 37.7419 22.576V24.1129C37.7419 24.391 37.8524 24.6576 38.049 24.8542C38.2456 25.0508 38.5123 25.1613 38.7903 25.1613H42.9839C43.2619 25.1613 43.5286 25.0508 43.7252 24.8542C43.9218 24.6576 44.0323 24.391 44.0323 24.1129V22.576C44.6177 22.3913 45.1857 22.1552 45.7296 21.8704L46.8178 22.9597C47.0144 23.1562 47.281 23.2666 47.559 23.2666C47.837 23.2666 48.1036 23.1562 48.3002 22.9597L51.2661 19.9938C51.4627 19.7972 51.5731 19.5306 51.5731 19.2526C51.5731 18.9746 51.4627 18.708 51.2661 18.5114L50.1789 17.4231C50.4629 16.8792 50.6984 16.3112 50.8824 15.7258H52.4194C52.6974 15.7258 52.9641 15.6154 53.1607 15.4187C53.3573 15.2221 53.4677 14.9555 53.4677 14.6774V11.5323H55.5645V31.4516H26.2097V29.3548C26.4877 29.3548 26.7544 29.2444 26.951 29.0478C27.1476 28.8512 27.2581 28.5845 27.2581 28.3065ZM32.716 10.7166C32.925 9.79753 33.2892 8.92077 33.7927 8.12395C33.9196 7.92273 33.9743 7.68432 33.9478 7.44789C33.9214 7.21145 33.8152 6.99105 33.6469 6.8229L32.7327 5.90871L34.2152 4.42629L35.1294 5.34048C35.2975 5.5088 35.5179 5.61491 35.7543 5.64139C35.9908 5.66787 36.2292 5.61315 36.4304 5.48621C37.2272 4.9827 38.104 4.6186 39.0231 4.40952C39.2549 4.35673 39.4619 4.22671 39.6101 4.04078C39.7583 3.85485 39.8389 3.62406 39.8387 3.38629V2.09677H41.9355V3.38629C41.9353 3.62406 42.0159 3.85485 42.1641 4.04078C42.3123 4.22671 42.5193 4.35673 42.7511 4.40952C43.6702 4.6186 44.547 4.9827 45.3438 5.48621C45.545 5.61315 45.7834 5.66787 46.0199 5.64139C46.2563 5.61491 46.4767 5.5088 46.6448 5.34048L47.559 4.42629L49.0415 5.90871L48.1273 6.8229C47.9589 6.99105 47.8528 7.21145 47.8263 7.44789C47.7999 7.68432 47.8546 7.92273 47.9815 8.12395C48.485 8.92077 48.8491 9.79753 49.0582 10.7166C49.111 10.9485 49.241 11.1555 49.427 11.3037C49.6129 11.4519 49.8437 11.5325 50.0815 11.5323H51.371V13.629H50.0815C49.8437 13.6288 49.6129 13.7094 49.427 13.8576C49.241 14.0058 49.111 14.2128 49.0582 14.4447C48.8491 15.3638 48.485 16.2405 47.9815 17.0373C47.8546 17.2386 47.7999 17.477 47.8263 17.7134C47.8528 17.9498 47.9589 18.1702 48.1273 18.3384L49.0415 19.2526L47.559 20.735L46.6448 19.8208C46.4768 19.6528 46.2566 19.5468 46.0204 19.5203C45.7841 19.4938 45.546 19.5484 45.3448 19.6751C44.5479 20.1783 43.6712 20.5424 42.7522 20.7518C42.5203 20.8043 42.3132 20.9341 42.1648 21.1198C42.0164 21.3056 41.9355 21.5362 41.9355 21.774V23.0645H39.8387V21.774C39.8386 21.5362 39.7578 21.3056 39.6094 21.1198C39.461 20.9341 39.2539 20.8043 39.022 20.7518C38.103 20.5424 37.2263 20.1783 36.4294 19.6751C36.2282 19.5484 35.99 19.4938 35.7538 19.5203C35.5176 19.5468 35.2974 19.6528 35.1294 19.8208L34.2152 20.735L32.7327 19.2526L33.6469 18.3384C33.8152 18.1702 33.9214 17.9498 33.9478 17.7134C33.9743 17.477 33.9196 17.2386 33.7927 17.0373C33.2892 16.2405 32.925 15.3638 32.716 14.4447C32.6632 14.2128 32.5332 14.0058 32.3472 13.8576C32.1613 13.7094 31.9305 13.6288 31.6927 13.629H30.4032V11.5323H31.6927C31.9305 11.5325 32.1613 11.4519 32.3472 11.3037C32.5332 11.1555 32.6632 10.9485 32.716 10.7166ZM22.0161 8.3871C22.0161 8.10905 22.1266 7.84239 22.3232 7.64578C22.5198 7.44917 22.7865 7.33871 23.0645 7.33871H31.1969L31.5963 7.73815C31.3119 8.28208 31.0762 8.85006 30.8918 9.43548H25.1613C24.8832 9.43548 24.6166 9.54594 24.42 9.74255C24.2234 9.93916 24.1129 10.2058 24.1129 10.4839V14.6774H22.0161V8.3871ZM2.09677 16.7742H25.1613V27.2581H2.09677V16.7742ZM22.0161 29.3548H24.1129V31.4516H22.0161V29.3548ZM62.9032 36.6936C62.9032 36.9716 62.7928 37.2383 62.5962 37.4349C62.3995 37.6315 62.1329 37.7419 61.8548 37.7419H19.9194C19.6413 37.7419 19.3746 37.6315 19.178 37.4349C18.9814 37.2383 18.871 36.9716 18.871 36.6936V33.5484H62.9032V36.6936Z" fill="black"/><path id="Vector_17" d="M40.887 18.8712C42.1311 18.8712 43.3473 18.5023 44.3817 17.8111C45.4162 17.1199 46.2224 16.1375 46.6985 14.9881C47.1746 13.8386 47.2992 12.5739 47.0565 11.3537C46.8137 10.1335 46.2147 9.01264 45.3349 8.13292C44.4552 7.25321 43.3344 6.65411 42.1142 6.4114C40.894 6.16868 39.6292 6.29325 38.4798 6.76935C37.3304 7.24545 36.348 8.0517 35.6568 9.08614C34.9656 10.1206 34.5967 11.3367 34.5967 12.5809C34.5983 14.2486 35.2616 15.8476 36.4409 17.0269C37.6202 18.2062 39.2192 18.8695 40.887 18.8712ZM40.887 8.3873C41.7164 8.3873 42.5272 8.63325 43.2168 9.09405C43.9064 9.55484 44.4439 10.2098 44.7613 10.9761C45.0787 11.7423 45.1618 12.5855 45 13.399C44.8382 14.2124 44.4388 14.9597 43.8523 15.5461C43.2658 16.1326 42.5186 16.532 41.7051 16.6938C40.8917 16.8556 40.0485 16.7726 39.2822 16.4552C38.5159 16.1378 37.861 15.6003 37.4002 14.9107C36.9394 14.221 36.6935 13.4103 36.6935 12.5809C36.6935 11.4687 37.1353 10.402 37.9217 9.61557C38.7082 8.82912 39.7748 8.3873 40.887 8.3873Z" fill="black"/><path id="Vector_18" d="M7.64547 18.1299L4.50031 21.275C4.30377 21.4716 4.19336 21.7383 4.19336 22.0163C4.19336 22.2942 4.30377 22.5609 4.50031 22.7575L7.64547 25.9026L9.12789 24.4202L6.72394 22.0163L9.12789 19.6123L7.64547 18.1299Z" fill="black"/><path id="Vector_19" d="M19.6123 18.1299L18.1299 19.6123L20.5338 22.0163L18.1299 24.4202L19.6123 25.9026L22.7575 22.7575C22.954 22.5609 23.0644 22.2942 23.0644 22.0163C23.0644 21.7383 22.954 21.4716 22.7575 21.275L19.6123 18.1299Z" fill="black"/><path id="Vector_20" d="M10.583 25.7397L14.7744 17.3569L16.6489 18.2942L12.4575 26.677L10.583 25.7397Z" fill="black"/></g></svg>