<svg xmlns="http://www.w3.org/2000/svg" width="56" height="52" viewBox="0 0 56 52" fill="none"><g id="Icon"><g id="Group"><path id="Vector" fill-rule="evenodd" clip-rule="evenodd" d="M47.0558 15.4919L55.223 20.2072V29.6378L47.0558 34.353L38.8887 29.6378V20.2072L47.0558 15.4919Z" fill="#1176E8"/><path id="Vector_2" fill-rule="evenodd" clip-rule="evenodd" d="M38.8887 20.207L47.0558 24.9223V34.3528L38.8887 29.6376V20.207Z" fill="#4EB1FC"/><path id="Vector_3" fill-rule="evenodd" clip-rule="evenodd" d="M47.0557 24.9223L55.2229 20.207V29.6376L47.0557 34.3528V24.9223Z" fill="#2A92FA"/><path id="Vector_4" fill-rule="evenodd" clip-rule="evenodd" d="M8.94357 15.4919L0.776367 20.2072V29.6378L8.94357 34.353L17.1106 29.6378V20.2072L8.94357 15.4919Z" fill="#F9AC00"/><path id="Vector_5" fill-rule="evenodd" clip-rule="evenodd" d="M17.1104 20.207L8.94336 24.9223V34.3528L17.1104 29.6376V20.207Z" fill="#FDC72E"/><path id="Vector_6" fill-rule="evenodd" clip-rule="evenodd" d="M8.94357 24.9223L0.776367 20.207V29.6376L8.94357 34.3528V24.9223Z" fill="#FFEB87"/><path id="Vector_7" fill-rule="evenodd" clip-rule="evenodd" d="M27.9991 31.446L36.1662 36.1613V45.5919L27.9991 50.3072L19.832 45.5919V36.1613L27.9991 31.446Z" fill="#29B933"/><path id="Vector_8" fill-rule="evenodd" clip-rule="evenodd" d="M19.832 36.1614L27.9991 40.8767V50.3072L19.832 45.592V36.1614Z" fill="#96FF96"/><path id="Vector_9" fill-rule="evenodd" clip-rule="evenodd" d="M28 40.8767L36.1671 36.1614V45.592L28 50.3072V40.8767Z" fill="#2DD62D"/><path id="Vector_10" fill-rule="evenodd" clip-rule="evenodd" d="M37.6108 8.79439L35.678 8.41327L34.8292 6.36708L35.9271 4.72991L33.6639 2.46671L32.0268 3.56475L29.9806 2.71594L29.5995 0.783203H26.399L26.0179 2.71594L23.9717 3.56475L22.3345 2.46671L20.0713 4.72991L21.1692 6.36708L20.3205 8.41327L18.3877 8.79439V11.995L20.3205 12.3761L21.1692 14.4223L20.0713 16.0594L22.3345 18.3225L23.9717 17.2246L26.0179 18.0734L26.399 20.0061H29.5995L29.9806 18.0734L32.0268 17.2246L33.6639 18.3225L35.9271 16.0594L34.8292 14.4223L35.678 12.3761L37.6108 11.995V8.79439Z" fill="#7986BF"/><path id="Vector_11" fill-rule="evenodd" clip-rule="evenodd" d="M36.6764 11.995L34.7436 12.3761L33.8949 14.4223L34.9929 16.0594L33.1047 17.9475L31.6696 16.9851L29.0463 18.0734L28.6652 20.0061H26.399L26.0179 18.0734L23.3944 16.9853L21.9594 17.9475L20.0713 16.0594L21.1692 14.4223L20.3205 12.3761L18.3877 11.995V8.79439L20.3205 8.41327L21.1692 6.36708L20.0713 4.72991L21.9594 2.84184L23.3944 3.80409L26.0179 2.71594L26.399 0.783203H28.6652L29.0463 2.71594L31.6696 3.80409L33.1047 2.84184L34.9929 4.72991L33.8949 6.36708L34.7436 8.41327L36.6764 8.79439V11.995Z" fill="#909CD1"/></g><path id="Vector_12" d="M27.2178 15.3393C29.9486 15.3393 32.1623 13.1256 32.1623 10.3948C32.1623 7.66413 29.9486 5.45044 27.2178 5.45044C24.4871 5.45044 22.2734 7.66413 22.2734 10.3948C22.2734 13.1256 24.4871 15.3393 27.2178 15.3393Z" fill="#7986BF"/><path id="Vector_13" d="M32.9216 10.6335C33.0576 7.91647 30.9652 5.6036 28.2481 5.46761C25.531 5.33162 23.2182 7.42401 23.0822 10.1411C22.9462 12.8582 25.0386 15.171 27.7556 15.307C30.4727 15.443 32.7856 13.3506 32.9216 10.6335Z" fill="#F3F3FF"/><path id="Vector_14" fill-rule="evenodd" clip-rule="evenodd" d="M8.16753 10.2355V4.29427C8.16753 3.8647 8.51565 3.51669 8.94411 3.51669H14.8837C15.3121 3.51669 15.6603 3.86481 15.6603 4.29427C15.6603 4.72373 15.3121 5.07241 14.8837 5.07241H9.7207V10.2354C9.7207 10.665 9.37257 11.0131 8.94411 11.0131C8.51565 11.0131 8.16753 10.6651 8.16753 10.2355ZM40.3345 4.29427C40.3345 3.8647 40.6826 3.51669 41.1164 3.51669H47.056C47.4845 3.51669 47.8326 3.86481 47.8326 4.29427V10.2355C47.8326 10.6651 47.4845 11.0132 47.056 11.0132C46.6275 11.0132 46.2794 10.6651 46.2794 10.2355V5.07252H41.1164C40.6826 5.07252 40.3345 4.72373 40.3345 4.29427ZM15.6603 45.5928C15.6603 46.0213 15.3121 46.3705 14.8837 46.3705H8.94411C8.51565 46.3705 8.16753 46.0213 8.16753 45.5928V39.6511C8.16753 39.2215 8.51565 38.8735 8.94411 38.8735C9.37257 38.8735 9.7207 39.2216 9.7207 39.6511V44.8146H14.8837C15.3121 44.8146 15.6603 45.1627 15.6603 45.5927V45.5928ZM47.8326 39.6511V45.5928C47.8326 46.0213 47.4845 46.3705 47.056 46.3705H41.1164C40.6826 46.3705 40.3345 46.0213 40.3345 45.5928C40.3345 45.1644 40.6826 44.8147 41.1164 44.8147H46.2794V39.6512C46.2794 39.2216 46.6275 38.8736 47.056 38.8736C47.4845 38.8736 47.8326 39.2216 47.8326 39.6511ZM47.8326 33.0056V25.3714L54.4469 21.5544V29.1885L47.8326 33.0056ZM43.6443 26.8909C43.4301 26.5192 42.9534 26.3918 42.5838 26.6066L39.6649 28.291V21.5544L46.2794 25.3714V33.0056L40.4416 29.6373L43.3605 27.9541C43.7354 27.7388 43.8587 27.2631 43.6444 26.8909H43.6443ZM28.3856 30.7723L31.8776 32.7877L38.1118 29.1885V20.2074C38.1118 19.9294 38.2563 19.673 38.4973 19.5336L41.5877 17.7518L35.7338 14.375L36.5747 15.6294C36.7836 15.9378 36.7461 16.3503 36.4837 16.6126L34.2182 18.877C33.9557 19.1401 33.5434 19.1802 33.2327 18.9729L31.942 18.1063L30.6673 18.6366L30.362 20.162C30.2924 20.5267 29.971 20.7897 29.6014 20.7897H26.3987C26.0291 20.7897 25.7077 20.5268 25.6327 20.162L25.3328 18.6366L24.0582 18.1063L22.7621 18.9729C22.4568 19.1802 22.0444 19.1401 21.782 18.877L19.5165 16.6126C19.2541 16.3502 19.2166 15.9378 19.4202 15.6294L20.261 14.3745L14.4124 17.7519L17.4973 19.5337C17.7383 19.673 17.8883 19.9295 17.8883 20.2075V29.1887L24.1225 32.7878L27.609 30.7724C27.85 30.6332 28.15 30.6332 28.3856 30.7724V30.7723ZM28.7766 48.9605V41.3259L35.3857 37.5089V45.1425L28.7766 48.9606V48.9605ZM20.6091 37.5087L27.2235 41.3258V48.9604L20.6091 45.1423V37.5086V37.5087ZM34.6092 36.1613L28.0002 39.9788L21.3858 36.1613L28.0002 32.3442L34.6092 36.1613ZM9.72081 33.0056V25.3714L16.3298 21.5544V28.291L13.4163 26.6066C13.0414 26.3918 12.5647 26.5193 12.3505 26.8909C12.1362 27.2631 12.2648 27.7387 12.6397 27.9541L15.5533 29.6373L9.72081 33.0056ZM1.55306 21.5545L8.16753 25.3715V33.0057L1.55306 29.1887V21.5545ZM8.94411 16.3898L15.5531 20.2074L8.94411 24.0245L2.32964 20.2074L8.94411 16.3898ZM19.1576 9.43324L20.4644 9.17568C20.7216 9.12534 20.9358 8.95078 21.0321 8.71033L21.8837 6.66281C21.9855 6.42291 21.9587 6.14812 21.8087 5.93178L21.0696 4.82474L22.43 3.46491L23.5387 4.20727C23.7529 4.35239 24.026 4.37917 24.267 4.27949L26.313 3.43057C26.554 3.3309 26.7308 3.11778 26.7789 2.86233L27.036 1.55606H28.9588L29.2211 2.86233C29.2693 3.11778 29.4461 3.3309 29.6817 3.43057L31.733 4.27949C31.974 4.37917 32.2471 4.35239 32.4613 4.20727L33.5699 3.46491L34.9303 4.82474L34.1858 5.93178C34.0413 6.14812 34.0145 6.42291 34.1162 6.66281L34.9624 8.71033C35.0642 8.95078 35.2784 9.12534 35.5301 9.17568L36.8369 9.43324V11.3565L35.5301 11.6141C35.2784 11.6644 35.0641 11.839 34.9624 12.079L34.1162 14.1265C34.0144 14.367 34.0412 14.6412 34.1858 14.8576L34.9303 15.9646L33.5699 17.325L32.4613 16.5827C32.2471 16.4376 31.974 16.4103 31.733 16.5098L29.6817 17.3593C29.446 17.4589 29.2693 17.6721 29.2211 17.9276L28.9588 19.2338H27.036L26.7789 17.9276C26.7307 17.6721 26.554 17.4589 26.313 17.3593L24.267 16.5098C24.026 16.4103 23.7529 16.4375 23.5387 16.5827L22.43 17.325L21.0696 15.9646L21.8087 14.8576C21.9587 14.6417 21.9855 14.367 21.8837 14.1265L21.0321 12.079C20.9357 11.8391 20.7216 11.6644 20.4644 11.6141L19.1576 11.3565V9.43324ZM47.056 16.3898L40.4415 20.2074L47.056 24.0245L53.665 20.2074L47.056 16.3898ZM55.6092 19.5337L47.4417 14.8186C47.2007 14.6793 46.9061 14.6793 46.6651 14.8186L43.141 16.8537L36.4837 13.0115L37.7638 12.7593C38.128 12.6875 38.3958 12.3678 38.3958 11.996V8.79378C38.3958 8.4221 38.128 8.10231 37.7638 8.03053L36.2427 7.73007L35.7125 6.45224L36.5747 5.16042C36.7836 4.85141 36.7461 4.4395 36.4837 4.17705L34.2182 1.91263C33.9557 1.64962 33.5434 1.6095 33.2327 1.81674L31.942 2.68277L30.6673 2.15253L30.362 0.62769C30.2924 0.26301 29.971 0 29.6014 0H26.3987C26.0291 0 25.7077 0.26301 25.6327 0.62769L25.3328 2.15253L24.0582 2.68277L22.7621 1.81674C22.4568 1.6095 22.0444 1.64962 21.782 1.91263L19.5165 4.17705C19.2541 4.4395 19.2166 4.85141 19.4202 5.16042L20.2878 6.45224L19.7575 7.72963L18.2311 8.03064C17.8669 8.10242 17.6046 8.4221 17.6046 8.79389V11.9961C17.6046 12.3678 17.867 12.6876 18.2311 12.7594L19.5112 13.0116L12.8593 16.8539L9.3298 14.8187C9.09412 14.6794 8.79422 14.6794 8.55321 14.8187L0.38557 19.5337C0.144561 19.673 0 19.9295 0 20.2075V29.6374C0 29.9155 0.144561 30.1719 0.38557 30.3113L8.5531 35.0265C8.67633 35.0957 8.81022 35.131 8.94411 35.131C9.07801 35.131 9.2119 35.0957 9.32968 35.0265L17.1116 30.5357L22.5639 33.686L19.4414 35.4877C19.2004 35.6269 19.0557 35.8835 19.0557 36.1615V45.5931C19.0557 45.8705 19.2003 46.1275 19.4414 46.2663L27.6089 50.981C27.7322 51.0506 27.866 51.0855 27.9999 51.0855C28.1338 51.0855 28.2677 51.0507 28.3855 50.981L36.5532 46.2663C36.7942 46.1276 36.9442 45.8705 36.9442 45.5931V36.1615C36.9442 35.8835 36.7942 35.627 36.5532 35.4877L33.436 33.686L38.8882 30.5357L46.6649 35.0265C46.7881 35.0957 46.922 35.131 47.0559 35.131C47.1898 35.131 47.3237 35.0957 47.4415 35.0265L55.609 30.3113C55.85 30.172 56 29.9155 56 29.6374V20.2075C56 19.9295 55.85 19.6731 55.609 19.5337H55.6092ZM28.0001 6.24057C30.2924 6.24057 32.1508 8.10442 32.1508 10.3945C32.1508 12.6846 30.2923 14.5484 28.0001 14.5484C25.7079 14.5484 23.844 12.6851 23.844 10.3945C23.844 8.10386 25.7079 6.24057 28.0001 6.24057ZM28.0001 16.1044C24.8508 16.1044 22.2907 13.5433 22.2907 10.3946C22.2907 7.24594 24.8508 4.68529 28.0001 4.68529C31.1493 4.68529 33.7094 7.24649 33.7094 10.3946C33.7094 13.5427 31.1493 16.1044 28.0001 16.1044Z" fill="#110D0D" fill-opacity="0.58"/></g></svg>