<svg xmlns="http://www.w3.org/2000/svg" width="65" height="69" viewBox="0 0 65 69" fill="none"><g id="Group"><g id="Group_2"><path id="Vector" d="M26.4827 21.7932C26.1499 21.7932 25.8809 21.5236 25.8809 21.1914V15.7747C25.8809 15.4425 26.1499 15.1729 26.4827 15.1729C26.8155 15.1729 27.0846 15.4425 27.0846 15.7747V21.1914C27.0846 21.5236 26.8155 21.7932 26.4827 21.7932Z" fill="#003DBA"></path></g><g id="Group_3"><path id="Vector_2" d="M31.2952 21.7929C30.9624 21.7929 30.6934 21.5233 30.6934 21.1911V16.3763C30.6934 16.044 30.9624 15.7744 31.2952 15.7744C31.628 15.7744 31.8971 16.044 31.8971 16.3763V21.1911C31.8971 21.5233 31.628 21.7929 31.2952 21.7929Z" fill="#003DBA"></path></g><g id="Group_4"><path id="Vector_3" d="M31.2952 14.5707C30.9624 14.5707 30.6934 14.301 30.6934 13.9688V10.3577C30.6934 10.0255 30.9624 9.75586 31.2952 9.75586C31.628 9.75586 31.8971 10.0255 31.8971 10.3577V13.9688C31.8971 14.301 31.628 14.5707 31.2952 14.5707Z" fill="#003DBA"></path></g><g id="Group_5"><path id="Vector_4" d="M36.1106 21.7928C35.7778 21.7928 35.5088 21.5232 35.5088 21.191V14.5706C35.5088 14.2384 35.7778 13.9688 36.1106 13.9688C36.4435 13.9688 36.7125 14.2384 36.7125 14.5706V21.191C36.7125 21.5232 36.4435 21.7928 36.1106 21.7928Z" fill="#003DBA"></path></g><g id="Group_6"><path id="Vector_5" d="M21.6668 21.7932C21.334 21.7932 21.065 21.5236 21.065 21.1913V19.3858C21.065 18.7219 20.5245 18.1821 19.8613 18.1821H16.2502C14.9225 18.1821 13.8428 17.1024 13.8428 15.7747C13.8428 14.447 14.9225 13.3673 16.2502 13.3673H17.4539C18.1171 13.3673 18.6576 12.8274 18.6576 12.1636V9.75615C18.6576 9.42393 18.9266 9.1543 19.2594 9.1543C19.5923 9.1543 19.8613 9.42393 19.8613 9.75615V12.1636C19.8613 13.4912 18.7816 14.571 17.4539 14.571H16.2502C15.5863 14.571 15.0465 15.1108 15.0465 15.7747C15.0465 16.4385 15.5863 16.9784 16.2502 16.9784H19.8613C21.189 16.9784 22.2687 18.0581 22.2687 19.3858V21.1913C22.2687 21.5236 21.9997 21.7932 21.6668 21.7932Z" fill="#003DBA"></path></g><g id="Group_7"><path id="Vector_6" d="M41.5276 21.7931C41.1948 21.7931 40.9258 21.5235 40.9258 21.1913V16.0755C40.9258 14.5823 42.1409 13.3672 43.6341 13.3672H44.5369C44.8697 13.3672 45.1387 13.6368 45.1387 13.969C45.1387 14.3013 44.8697 14.5709 44.5369 14.5709H43.6341C42.8042 14.5709 42.1295 15.2462 42.1295 16.0755V21.1913C42.1295 21.5235 41.8605 21.7931 41.5276 21.7931Z" fill="#003DBA"></path></g><g id="Group_8"><path id="Vector_7" d="M47.8466 14.5707H46.9438C46.611 14.5707 46.342 14.3011 46.342 13.9689C46.342 13.6367 46.611 13.367 46.9438 13.367H47.8466C48.2492 13.367 48.6248 13.2106 48.9041 12.9271C49.1948 12.6406 49.3512 12.2651 49.3512 11.8624C49.3512 11.0331 48.6766 10.3578 47.8466 10.3578H46.6429C45.1497 10.3578 43.9346 9.14264 43.9346 7.64945V6.14482C43.9346 5.8126 44.2036 5.54297 44.5364 5.54297C44.8692 5.54297 45.1383 5.8126 45.1383 6.14482V7.64945C45.1383 8.4788 45.813 9.15408 46.6429 9.15408H47.8466C49.3398 9.15408 50.5549 10.3692 50.5549 11.8624C50.5549 12.5901 50.2709 13.2707 49.7551 13.7781C49.2543 14.2867 48.5742 14.5707 47.8466 14.5707Z" fill="#003DBA"></path></g><g id="Group_9"><path id="Vector_8" d="M18.6568 43.4596H12.0364C11.7036 43.4596 11.4346 43.1899 11.4346 42.8577C11.4346 42.5255 11.7036 42.2559 12.0364 42.2559H18.6568C18.9896 42.2559 19.2586 42.5255 19.2586 42.8577C19.2586 43.1899 18.9896 43.4596 18.6568 43.4596Z" fill="#003DBA"></path></g><g id="Group_10"><path id="Vector_9" d="M13.2414 39.8487H5.41728C5.08446 39.8487 4.81543 39.5791 4.81543 39.2469C4.81543 38.9146 5.08446 38.645 5.41728 38.645H13.2414C13.5742 38.645 13.8432 38.9146 13.8432 39.2469C13.8432 39.5791 13.5742 39.8487 13.2414 39.8487Z" fill="#003DBA"></path></g><g id="Group_11"><path id="Vector_10" d="M18.657 39.8487H15.6478C15.3149 39.8487 15.0459 39.5791 15.0459 39.2469C15.0459 38.9146 15.3149 38.645 15.6478 38.645H18.657C18.9898 38.645 19.2589 38.9146 19.2589 39.2469C19.2589 39.5791 18.9898 39.8487 18.657 39.8487Z" fill="#003DBA"></path></g><g id="Group_12"><path id="Vector_11" d="M18.6579 35.6358H9.63017C9.29735 35.6358 9.02832 35.3662 9.02832 35.034C9.02832 34.7018 9.29735 34.4321 9.63017 34.4321H18.6579C18.9908 34.4321 19.2598 34.7018 19.2598 35.034C19.2598 35.3662 18.9908 35.6358 18.6579 35.6358Z" fill="#003DBA"></path></g><g id="Group_13"><path id="Vector_12" d="M18.6576 32.0245H14.4446C14.1118 32.0245 13.8428 31.7549 13.8428 31.4227C13.8428 31.0904 14.1118 30.8208 14.4446 30.8208H18.6576C18.9904 30.8208 19.2594 31.0904 19.2594 31.4227C19.2594 31.7549 18.9904 32.0245 18.6576 32.0245Z" fill="#003DBA"></path></g><g id="Group_14"><path id="Vector_13" d="M18.6569 28.4137H7.82353C7.49071 28.4137 7.22168 28.144 7.22168 27.8118C7.22168 27.4796 7.49071 27.21 7.82353 27.21H18.6569C18.9897 27.21 19.2587 27.4796 19.2587 27.8118C19.2587 28.144 18.9897 28.4137 18.6569 28.4137Z" fill="#003DBA"></path></g><g id="Group_15"><path id="Vector_14" d="M6.01845 22.3951H4.81474C4.48192 22.3951 4.21289 22.1255 4.21289 21.7933C4.21289 21.461 4.48192 21.1914 4.81474 21.1914H6.01845C6.35127 21.1914 6.6203 21.461 6.6203 21.7933C6.6203 22.1255 6.35127 22.3951 6.01845 22.3951Z" fill="#003DBA"></path></g><g id="Group_16"><path id="Vector_15" d="M18.6569 24.8025H14.143C12.9814 24.8025 12.0365 23.8576 12.0365 22.696V20.2886C12.0365 19.7909 11.6314 19.3858 11.1337 19.3858C10.8942 19.3858 10.6613 19.4815 10.4945 19.6488C10.3266 19.8162 10.2309 20.0497 10.2309 20.2886C10.2309 20.8531 10.0125 21.3822 9.61524 21.7794C9.22464 22.1706 8.68177 22.3951 8.12446 22.3951H7.82353C7.49071 22.3951 7.22168 22.1255 7.22168 21.7932C7.22168 21.461 7.49071 21.1914 7.82353 21.1914H8.12446C8.36399 21.1914 8.59691 21.0957 8.76302 20.9284C8.93154 20.7611 9.02724 20.5275 9.02724 20.2886C9.02724 19.7241 9.24571 19.195 9.64293 18.7978C10.0335 18.4066 10.5764 18.1821 11.1337 18.1821C12.2953 18.1821 13.2402 19.127 13.2402 20.2886V22.696C13.2402 23.1937 13.6452 23.5988 14.143 23.5988H18.6569C18.9897 23.5988 19.2587 23.8684 19.2587 24.2006C19.2587 24.5329 18.9897 24.8025 18.6569 24.8025Z" fill="#003DBA"></path></g><g id="Group_17"><path id="Vector_16" d="M19.8611 57.3023C19.5283 57.3023 19.2593 57.0327 19.2593 56.7004V55.1958C19.2593 54.6981 18.8542 54.293 18.3565 54.293C17.1949 54.293 16.25 53.3481 16.25 52.1865C16.25 51.025 17.1949 50.0801 18.3565 50.0801H21.3657C21.8635 50.0801 22.2685 49.675 22.2685 49.1773V47.6727C22.2685 47.3404 22.5375 47.0708 22.8704 47.0708C23.2032 47.0708 23.4722 47.3404 23.4722 47.6727V49.1773C23.4722 50.3389 22.5273 51.2838 21.3657 51.2838H18.3565C17.8587 51.2838 17.4537 51.6888 17.4537 52.1865C17.4537 52.6843 17.8587 53.0893 18.3565 53.0893C19.5181 53.0893 20.463 54.0342 20.463 55.1958V56.7004C20.463 57.0327 20.1939 57.3023 19.8611 57.3023Z" fill="#003DBA"></path></g><g id="Group_18"><path id="Vector_17" d="M25.8802 51.2838C25.5473 51.2838 25.2783 51.0141 25.2783 50.6819V47.6727C25.2783 47.3404 25.5473 47.0708 25.8802 47.0708C26.213 47.0708 26.482 47.3404 26.482 47.6727V50.6819C26.482 51.0141 26.213 51.2838 25.8802 51.2838Z" fill="#003DBA"></path></g><g id="Group_19"><path id="Vector_18" d="M25.8802 59.1077C25.5473 59.1077 25.2783 58.838 25.2783 58.5058V53.0892C25.2783 52.7569 25.5473 52.4873 25.8802 52.4873C26.213 52.4873 26.482 52.7569 26.482 53.0892V58.5058C26.482 58.838 26.213 59.1077 25.8802 59.1077Z" fill="#003DBA"></path></g><g id="Group_20"><path id="Vector_19" d="M30.0931 53.6912C29.7602 53.6912 29.4912 53.4215 29.4912 53.0893V47.6727C29.4912 47.3404 29.7602 47.0708 30.0931 47.0708C30.4259 47.0708 30.6949 47.3404 30.6949 47.6727V53.0893C30.6949 53.4215 30.4259 53.6912 30.0931 53.6912Z" fill="#003DBA"></path></g><g id="Group_21"><path id="Vector_20" d="M37.9173 51.8856C37.5845 51.8856 37.3154 51.616 37.3154 51.2838V47.6727C37.3154 47.3404 37.5845 47.0708 37.9173 47.0708C38.2501 47.0708 38.5191 47.3404 38.5191 47.6727V51.2838C38.5191 51.616 38.2501 51.8856 37.9173 51.8856Z" fill="#003DBA"></path></g><g id="Group_22"><path id="Vector_21" d="M33.7044 59.1078C33.3716 59.1078 33.1025 58.8382 33.1025 58.506V47.6727C33.1025 47.3404 33.3716 47.0708 33.7044 47.0708C34.0372 47.0708 34.3062 47.3404 34.3062 47.6727V58.506C34.3062 58.8382 34.0372 59.1078 33.7044 59.1078Z" fill="#003DBA"></path></g><g id="Group_23"><path id="Vector_22" d="M45.1394 60.9134C44.8066 60.9134 44.5376 60.6438 44.5376 60.3115V58.506C44.5376 57.1783 45.6173 56.0986 46.945 56.0986C47.6082 56.0986 48.1487 55.5587 48.1487 54.8949C48.1487 54.231 47.6082 53.6912 46.945 53.6912H43.9357C42.608 53.6912 41.5283 52.6114 41.5283 51.2838V47.6727C41.5283 47.3404 41.7973 47.0708 42.1302 47.0708C42.463 47.0708 42.732 47.3404 42.732 47.6727V51.2838C42.732 51.9476 43.2719 52.4875 43.9357 52.4875H46.945C48.2727 52.4875 49.3524 53.5672 49.3524 54.8949C49.3524 56.2226 48.2727 57.3023 46.945 57.3023C46.2811 57.3023 45.7413 57.8421 45.7413 58.506V60.3115C45.7413 60.6438 45.4723 60.9134 45.1394 60.9134Z" fill="#003DBA"></path></g><g id="Group_24"><path id="Vector_23" d="M53.5653 39.8487H46.3431C46.0102 39.8487 45.7412 39.5791 45.7412 39.2469C45.7412 38.9146 46.0102 38.645 46.3431 38.645H53.5653C53.8981 38.645 54.1671 38.9146 54.1671 39.2469C54.1671 39.5791 53.8981 39.8487 53.5653 39.8487Z" fill="#003DBA"></path></g><g id="Group_25"><path id="Vector_24" d="M60.7873 35.0338H52.9632C52.6304 35.0338 52.3613 34.7642 52.3613 34.4319C52.3613 34.0997 52.6304 33.8301 52.9632 33.8301H60.7873C61.1201 33.8301 61.3891 34.0997 61.3891 34.4319C61.3891 34.7642 61.1201 35.0338 60.7873 35.0338Z" fill="#003DBA"></path></g><g id="Group_26"><path id="Vector_25" d="M50.556 35.0338H46.3431C46.0102 35.0338 45.7412 34.7642 45.7412 34.4319C45.7412 34.0997 46.0102 33.8301 46.3431 33.8301H50.556C50.8888 33.8301 51.1579 34.0997 51.1579 34.4319C51.1579 34.7642 50.8888 35.0338 50.556 35.0338Z" fill="#003DBA"></path></g><g id="Group_27"><path id="Vector_26" d="M52.3616 51.284C51.0339 51.284 49.9542 50.2043 49.9542 48.8766V45.8674C49.9542 45.2035 49.4137 44.6637 48.7505 44.6637H46.3431C46.0102 44.6637 45.7412 44.394 45.7412 44.0618C45.7412 43.7296 46.0102 43.46 46.3431 43.46H48.7505C50.0782 43.46 51.1579 44.5397 51.1579 45.8674V48.8766C51.1579 49.5405 51.6977 50.0803 52.3616 50.0803C53.0248 50.0803 53.5653 49.5405 53.5653 48.8766C53.5653 47.5489 54.645 46.4692 55.9727 46.4692H57.7782C58.1111 46.4692 58.3801 46.7388 58.3801 47.0711C58.3801 47.4033 58.1111 47.6729 57.7782 47.6729H55.9727C55.3088 47.6729 54.769 48.2128 54.769 48.8766C54.769 50.2043 53.6893 51.284 52.3616 51.284Z" fill="#003DBA"></path></g><g id="Group_28"><path id="Vector_27" d="M51.1579 30.2188H46.3431C46.0102 30.2188 45.7412 29.9492 45.7412 29.617C45.7412 29.2848 46.0102 29.0151 46.3431 29.0151H51.1579C51.4907 29.0151 51.7597 29.2848 51.7597 29.617C51.7597 29.9492 51.4907 30.2188 51.1579 30.2188Z" fill="#003DBA"></path></g><g id="Group_29"><path id="Vector_28" d="M47.8477 25.404H46.3431C46.0102 25.404 45.7412 25.1343 45.7412 24.8021C45.7412 24.4699 46.0102 24.2002 46.3431 24.2002H47.8477C48.6776 24.2002 49.3523 23.525 49.3523 22.6956V19.6864C49.3523 18.1932 50.5675 16.978 52.0607 16.978C53.5538 16.978 54.769 18.1932 54.769 19.6864C54.769 20.5157 55.4437 21.191 56.2736 21.191H57.7782C58.1111 21.191 58.3801 21.4606 58.3801 21.7928C58.3801 22.1251 58.1111 22.3947 57.7782 22.3947H56.2736C54.7804 22.3947 53.5653 21.1796 53.5653 19.6864C53.5653 18.857 52.8906 18.1817 52.0607 18.1817C51.2307 18.1817 50.556 18.857 50.556 19.6864V22.6956C50.556 24.1888 49.3409 25.404 47.8477 25.404Z" fill="#003DBA"></path></g><g id="Group_30"><g id="Group_31"><path id="Vector_29" d="M40.3236 53.0895C40.3236 54.4196 39.2463 55.4969 37.9162 55.4969C36.5861 55.4969 35.5088 54.4196 35.5088 53.0895C35.5088 52.9752 35.5148 52.8669 35.5329 52.7585C35.5991 52.265 35.8218 51.8136 36.1407 51.4645C36.1407 51.4585 36.1468 51.4645 36.1468 51.4645C36.5801 50.9831 37.212 50.6821 37.9162 50.6821C39.2463 50.6821 40.3236 51.7594 40.3236 53.0895Z" fill="#0CC1FE"></path></g><g id="Group_32"><path id="Vector_30" d="M36.1107 60.3117C36.1107 61.6418 35.0334 62.7191 33.7033 62.7191C32.3732 62.7191 31.2959 61.6418 31.2959 60.3117C31.2959 60.1913 31.3019 60.077 31.326 59.9626C31.3982 59.445 31.639 58.9816 31.988 58.6205C32.4274 58.1812 33.0353 57.9043 33.7033 57.9043C35.0334 57.9043 36.1107 58.9816 36.1107 60.3117Z" fill="#0CC1FE"></path></g><g id="Group_33"><path id="Vector_31" d="M47.5453 62.1174C47.5453 63.4475 46.468 64.5248 45.1379 64.5248C43.8078 64.5248 42.7305 63.4475 42.7305 62.1174C42.7305 62.003 42.7365 61.8947 42.7545 61.7864C42.8207 61.2928 43.0434 60.8414 43.3624 60.4924C43.3624 60.4864 43.3684 60.4924 43.3684 60.4924C43.8018 60.0109 44.4337 59.71 45.1379 59.71C46.468 59.71 47.5453 60.7873 47.5453 62.1174Z" fill="#0CC1FE"></path></g><g id="Group_34"><path id="Vector_32" d="M12.639 42.8581C12.639 44.1882 11.5617 45.2655 10.2316 45.2655C8.90153 45.2655 7.82422 44.1882 7.82422 42.8581C7.82422 42.7437 7.83024 42.6354 7.84829 42.5271C7.9145 42.0336 8.13718 41.5822 8.45616 41.2331C8.45616 41.2271 8.46218 41.2331 8.46218 41.2331C8.89552 40.7516 9.52746 40.4507 10.2316 40.4507C11.5617 40.4507 12.639 41.528 12.639 42.8581Z" fill="#0CC1FE"></path></g><g id="Group_35"><path id="Vector_33" d="M61.9906 47.071C61.9906 48.4011 60.9133 49.4784 59.5832 49.4784C58.2531 49.4784 57.1758 48.4011 57.1758 47.071C57.1758 46.9566 57.1818 46.8483 57.1999 46.74C57.2661 46.2464 57.4887 45.7951 57.8077 45.446C57.8077 45.44 57.8137 45.446 57.8137 45.446C58.2471 44.9645 58.879 44.6636 59.5832 44.6636C60.9133 44.6636 61.9906 45.7409 61.9906 47.071Z" fill="#0CC1FE"></path></g><g id="Group_36"><path id="Vector_34" d="M57.7777 39.2473C57.7777 40.5773 56.7004 41.6547 55.3703 41.6547C54.0402 41.6547 52.9629 40.5773 52.9629 39.2473C52.9629 39.1269 52.9689 39.0125 52.993 38.8982C53.0652 38.3806 53.3059 37.9172 53.655 37.556C54.0944 37.1167 54.7022 36.8398 55.3703 36.8398C56.7004 36.8398 57.7777 37.9172 57.7777 39.2473Z" fill="#0CC1FE"></path></g><g id="Group_37"><path id="Vector_35" d="M64.9994 34.4323C64.9994 35.7624 63.9221 36.8397 62.592 36.8397C61.2619 36.8397 60.1846 35.7624 60.1846 34.4323C60.1846 34.3119 60.1906 34.1976 60.2147 34.0832C60.2869 33.5656 60.5276 33.1022 60.8767 32.7411C61.3161 32.3018 61.9239 32.0249 62.592 32.0249C63.9221 32.0249 64.9994 33.1022 64.9994 34.4323Z" fill="#0CC1FE"></path></g><g id="Group_38"><path id="Vector_36" d="M55.3715 29.6174C55.3715 30.9475 54.2941 32.0248 52.964 32.0248C51.634 32.0248 50.5566 30.9475 50.5566 29.6174C50.5566 29.497 50.5627 29.3826 50.5867 29.2683C50.659 28.7507 50.8997 28.2873 51.2488 27.9262C51.6881 27.4868 52.296 27.21 52.964 27.21C54.2941 27.21 55.3715 28.2873 55.3715 29.6174Z" fill="#0CC1FE"></path></g><g id="Group_39"><path id="Vector_37" d="M61.9906 21.7931C61.9906 23.1232 60.9133 24.2006 59.5832 24.2006C58.2531 24.2006 57.1758 23.1232 57.1758 21.7931C57.1758 21.6728 57.1818 21.5584 57.2059 21.4441C57.2781 20.9265 57.5188 20.4631 57.8679 20.1019C58.3073 19.6626 58.9151 19.3857 59.5832 19.3857C60.9133 19.3857 61.9906 20.4631 61.9906 21.7931Z" fill="#0CC1FE"></path></g><g id="Group_40"><path id="Vector_38" d="M6.01892 39.2473C6.01892 40.5773 4.9416 41.6547 3.61151 41.6547C2.28142 41.6547 1.2041 40.5773 1.2041 39.2473C1.2041 39.1329 1.21012 39.0246 1.22818 38.9162C1.29438 38.4227 1.51706 37.9713 1.83605 37.6223C1.83605 37.6162 1.84206 37.6223 1.84206 37.6223C2.2754 37.1408 2.90734 36.8398 3.61151 36.8398C4.9416 36.8398 6.01892 37.9172 6.01892 39.2473Z" fill="#0CC1FE"></path></g><g id="Group_41"><path id="Vector_39" d="M10.2328 35.0339C10.2328 36.364 9.15547 37.4413 7.82538 37.4413C6.49528 37.4413 5.41797 36.364 5.41797 35.0339C5.41797 34.9135 5.42399 34.7992 5.44806 34.6848C5.52028 34.1672 5.76102 33.7038 6.1101 33.3427C6.54945 32.9033 7.15732 32.6265 7.82538 32.6265C9.15547 32.6265 10.2328 33.7038 10.2328 35.0339Z" fill="#0CC1FE"></path></g><g id="Group_42"><path id="Vector_40" d="M4.81481 21.7931C4.81481 23.1232 3.7375 24.2006 2.40741 24.2006C1.07731 24.2006 0 23.1232 0 21.7931C0 21.6728 0.00601852 21.5584 0.0300926 21.4441C0.102315 20.9265 0.343056 20.4631 0.69213 20.1019C1.13148 19.6626 1.73935 19.3857 2.40741 19.3857C3.7375 19.3857 4.81481 20.4631 4.81481 21.7931Z" fill="#0CC1FE"></path></g><g id="Group_43"><path id="Vector_41" d="M21.6674 7.95086C21.6674 9.28096 20.59 10.3583 19.2599 10.3583C17.9299 10.3583 16.8525 9.28096 16.8525 7.95086C16.8525 7.83049 16.8586 7.71614 16.8826 7.60179C16.9549 7.0842 17.1956 6.62077 17.5447 6.25966C17.984 5.82031 18.5919 5.54346 19.2599 5.54346C20.59 5.54346 21.6674 6.62077 21.6674 7.95086Z" fill="#0CC1FE"></path></g><g id="Group_44"><path id="Vector_42" d="M28.889 13.9694C28.889 15.2995 27.8117 16.3768 26.4816 16.3768C25.1515 16.3768 24.0742 15.2995 24.0742 13.9694C24.0742 13.849 24.0802 13.7347 24.1043 13.6203C24.1765 13.1028 24.4173 12.6393 24.7663 12.2782C25.2057 11.8389 25.8136 11.562 26.4816 11.562C27.8117 11.562 28.889 12.6393 28.889 13.9694Z" fill="#0CC1FE"></path></g><g id="Group_45"><path id="Vector_43" d="M33.7035 8.55243C33.7035 9.88252 32.6262 10.9598 31.2961 10.9598C29.966 10.9598 28.8887 9.88252 28.8887 8.55243C28.8887 8.43206 28.8947 8.3177 28.9188 8.20335C28.991 7.68576 29.2317 7.22233 29.5808 6.86122C30.0202 6.42187 30.628 6.14502 31.2961 6.14502C32.6262 6.14502 33.7035 7.22233 33.7035 8.55243Z" fill="#0CC1FE"></path></g><g id="Group_46"><path id="Vector_44" d="M38.5189 12.7653C38.5189 14.0954 37.4416 15.1727 36.1115 15.1727C34.7814 15.1727 33.7041 14.0954 33.7041 12.7653C33.7041 12.651 33.7101 12.5426 33.7282 12.4343C33.7944 11.9408 34.0171 11.4894 34.336 11.1403C34.336 11.1343 34.3421 11.1403 34.3421 11.1403C34.7754 10.6588 35.4073 10.3579 36.1115 10.3579C37.4416 10.3579 38.5189 11.4352 38.5189 12.7653Z" fill="#0CC1FE"></path></g><g id="Group_47"><path id="Vector_45" d="M46.9447 4.33954C46.9447 5.66963 45.8674 6.74694 44.5373 6.74694C43.2072 6.74694 42.1299 5.66963 42.1299 4.33954C42.1299 4.21917 42.1359 4.10481 42.16 3.99046C42.2322 3.47287 42.4729 3.00944 42.822 2.64833C43.2614 2.20898 43.8692 1.93213 44.5373 1.93213C45.8674 1.93213 46.9447 3.00944 46.9447 4.33954Z" fill="#0CC1FE"></path></g><g id="Group_48"><path id="Vector_46" d="M7.8236 27.8117C7.8236 29.1418 6.74629 30.2191 5.4162 30.2191C4.0861 30.2191 3.00879 29.1418 3.00879 27.8117C3.00879 27.6913 3.01481 27.577 3.03888 27.4626C3.1111 26.945 3.35184 26.4816 3.70092 26.1205C4.14027 25.6812 4.74814 25.4043 5.4162 25.4043C6.74629 25.4043 7.8236 26.4816 7.8236 27.8117Z" fill="#0CC1FE"></path></g><g id="Group_49"><path id="Vector_47" d="M15.0453 31.423C15.0453 32.7531 13.968 33.8304 12.6379 33.8304C11.3078 33.8304 10.2305 32.7531 10.2305 31.423C10.2305 31.3027 10.2365 31.1883 10.2606 31.074C10.3328 30.5564 10.5735 30.0929 10.9226 29.7318C11.3619 29.2925 11.9698 29.0156 12.6379 29.0156C13.968 29.0156 15.0453 30.0929 15.0453 31.423Z" fill="#0CC1FE"></path></g><g id="Group_50"><path id="Vector_48" d="M28.2865 60.3117C28.2865 61.6418 27.2092 62.7191 25.8791 62.7191C24.549 62.7191 23.4717 61.6418 23.4717 60.3117C23.4717 60.1913 23.4777 60.077 23.5018 59.9626C23.574 59.445 23.8147 58.9816 24.1638 58.6205C24.6032 58.1812 25.211 57.9043 25.8791 57.9043C27.2092 57.9043 28.2865 58.9816 28.2865 60.3117Z" fill="#0CC1FE"></path></g><g id="Group_51"><path id="Vector_49" d="M32.4994 54.8952C32.4994 56.2253 31.4221 57.3026 30.092 57.3026C28.7619 57.3026 27.6846 56.2253 27.6846 54.8952C27.6846 54.7748 27.6906 54.6605 27.7147 54.5461C27.7869 54.0285 28.0276 53.5651 28.3767 53.204C28.8161 52.7646 29.4239 52.4878 30.092 52.4878C31.4221 52.4878 32.4994 53.5651 32.4994 54.8952Z" fill="#0CC1FE"></path></g><g id="Group_52"><path id="Vector_50" d="M22.2689 58.506C22.2689 59.8361 21.1916 60.9134 19.8615 60.9134C18.5314 60.9134 17.4541 59.8361 17.4541 58.506C17.4541 58.3857 17.4601 58.2713 17.4842 58.157C17.5564 57.6394 17.7972 57.1759 18.1462 56.8148C18.5856 56.3755 19.1935 56.0986 19.8615 56.0986C21.1916 56.0986 22.2689 57.1759 22.2689 58.506Z" fill="#0CC1FE"></path></g></g><g id="Group_53"><g id="Group_54"><path id="Vector_51" d="M40.3238 53.0895C40.3238 54.4196 39.2464 55.4969 37.9164 55.4969C37.3025 55.4969 36.7427 55.2682 36.3154 54.8831C37.5372 54.7687 38.4881 53.7395 38.4881 52.4877C38.4881 51.7775 38.1812 51.1335 37.6877 50.6942C37.7659 50.6881 37.8381 50.6821 37.9164 50.6821C39.2464 50.6821 40.3238 51.7594 40.3238 53.0895Z" fill="#048FFE"></path></g><g id="Group_55"><path id="Vector_52" d="M36.1099 60.3117C36.1099 61.6418 35.0326 62.7191 33.7025 62.7191C33.0886 62.7191 32.5289 62.4904 32.1016 62.1052C33.3233 61.9909 34.2742 60.9617 34.2742 59.7099C34.2742 58.9997 33.9673 58.3557 33.4738 57.9163C33.552 57.9103 33.6242 57.9043 33.7025 57.9043C35.0326 57.9043 36.1099 58.9816 36.1099 60.3117Z" fill="#048FFE"></path></g><g id="Group_56"><path id="Vector_53" d="M47.5454 62.1174C47.5454 63.4475 46.4681 64.5248 45.138 64.5248C44.5241 64.5248 43.9644 64.2961 43.5371 63.9109C44.7589 63.7965 45.7098 62.7674 45.7098 61.5155C45.7098 60.8053 45.4029 60.1614 44.9093 59.722C44.9876 59.716 45.0598 59.71 45.138 59.71C46.4681 59.71 47.5454 60.7873 47.5454 62.1174Z" fill="#048FFE"></path></g><g id="Group_57"><path id="Vector_54" d="M12.6392 42.8581C12.6392 44.1882 11.5619 45.2655 10.2318 45.2655C9.6179 45.2655 9.05817 45.0368 8.63086 44.6516C9.85262 44.5373 10.8035 43.5081 10.8035 42.2562C10.8035 41.5461 10.4966 40.9021 10.0031 40.4627C10.0813 40.4567 10.1535 40.4507 10.2318 40.4507C11.5619 40.4507 12.6392 41.528 12.6392 42.8581Z" fill="#048FFE"></path></g><g id="Group_58"><path id="Vector_55" d="M61.9908 47.071C61.9908 48.4011 60.9134 49.4784 59.5834 49.4784C58.9695 49.4784 58.4097 49.2497 57.9824 48.8645C59.2042 48.7502 60.1551 47.721 60.1551 46.4691C60.1551 45.7589 59.8482 45.115 59.3546 44.6756C59.4329 44.6696 59.5051 44.6636 59.5834 44.6636C60.9134 44.6636 61.9908 45.7409 61.9908 47.071Z" fill="#048FFE"></path></g><g id="Group_59"><path id="Vector_56" d="M57.7779 39.2473C57.7779 40.5773 56.7006 41.6547 55.3705 41.6547C54.7566 41.6547 54.1968 41.426 53.7695 41.0408C54.9913 40.9264 55.9422 39.8973 55.9422 38.6454C55.9422 37.9352 55.6353 37.2912 55.1418 36.8519C55.22 36.8459 55.2922 36.8398 55.3705 36.8398C56.7006 36.8398 57.7779 37.9172 57.7779 39.2473Z" fill="#048FFE"></path></g><g id="Group_60"><path id="Vector_57" d="M64.9995 34.4323C64.9995 35.7624 63.9222 36.8397 62.5921 36.8397C61.9783 36.8397 61.4185 36.611 60.9912 36.2258C62.213 36.1115 63.1639 35.0823 63.1639 33.8305C63.1639 33.1203 62.857 32.4763 62.3634 32.0369C62.4417 32.0309 62.5139 32.0249 62.5921 32.0249C63.9222 32.0249 64.9995 33.1022 64.9995 34.4323Z" fill="#048FFE"></path></g><g id="Group_61"><path id="Vector_58" d="M55.3706 29.6174C55.3706 30.9475 54.2933 32.0248 52.9632 32.0248C52.3493 32.0248 51.7896 31.7961 51.3623 31.4109C52.5841 31.2965 53.535 30.2674 53.535 29.0155C53.535 28.3053 53.228 27.6614 52.7345 27.222C52.8128 27.216 52.885 27.21 52.9632 27.21C54.2933 27.21 55.3706 28.2873 55.3706 29.6174Z" fill="#048FFE"></path></g><g id="Group_62"><path id="Vector_59" d="M61.9908 21.7931C61.9908 23.1232 60.9134 24.2006 59.5834 24.2006C58.9695 24.2006 58.4097 23.9719 57.9824 23.5867C59.2042 23.4723 60.1551 22.4431 60.1551 21.1913C60.1551 20.4811 59.8482 19.8371 59.3546 19.3978C59.4329 19.3918 59.5051 19.3857 59.5834 19.3857C60.9134 19.3857 61.9908 20.4631 61.9908 21.7931Z" fill="#048FFE"></path></g><g id="Group_63"><path id="Vector_60" d="M6.01908 39.2473C6.01908 40.5773 4.94176 41.6547 3.61167 41.6547C2.99778 41.6547 2.43806 41.426 2.01074 41.0408C3.2325 40.9264 4.18343 39.8973 4.18343 38.6454C4.18343 37.9352 3.87648 37.2912 3.38296 36.8519C3.46121 36.8459 3.53343 36.8398 3.61167 36.8398C4.94176 36.8398 6.01908 37.9172 6.01908 39.2473Z" fill="#048FFE"></path></g><g id="Group_64"><path id="Vector_61" d="M10.232 35.0339C10.232 36.364 9.15465 37.4413 7.82456 37.4413C7.21067 37.4413 6.65095 37.2126 6.22363 36.8274C7.44539 36.713 8.39632 35.6839 8.39632 34.432C8.39632 33.7218 8.08937 33.0779 7.59585 32.6385C7.6741 32.6325 7.74632 32.6265 7.82456 32.6265C9.15465 32.6265 10.232 33.7038 10.232 35.0339Z" fill="#048FFE"></path></g><g id="Group_65"><path id="Vector_62" d="M4.81497 21.7931C4.81497 23.1232 3.73766 24.2006 2.40757 24.2006C1.79368 24.2006 1.23396 23.9719 0.806641 23.5867C2.0284 23.4723 2.97933 22.4431 2.97933 21.1913C2.97933 20.4811 2.67238 19.8371 2.17886 19.3978C2.2571 19.3918 2.32933 19.3857 2.40757 19.3857C3.73766 19.3857 4.81497 20.4631 4.81497 21.7931Z" fill="#048FFE"></path></g><g id="Group_66"><path id="Vector_63" d="M21.6665 7.95086C21.6665 9.28096 20.5892 10.3583 19.2591 10.3583C18.6452 10.3583 18.0855 10.1296 17.6582 9.74438C18.88 9.63003 19.8309 8.60086 19.8309 7.34901C19.8309 6.63883 19.5239 5.99485 19.0304 5.55549C19.1087 5.54948 19.1809 5.54346 19.2591 5.54346C20.5892 5.54346 21.6665 6.62077 21.6665 7.95086Z" fill="#048FFE"></path></g><g id="Group_67"><path id="Vector_64" d="M28.8892 13.9694C28.8892 15.2995 27.8119 16.3768 26.4818 16.3768C25.8679 16.3768 25.3082 16.1481 24.8809 15.7629C26.1026 15.6486 27.0535 14.6194 27.0535 13.3676C27.0535 12.6574 26.7466 12.0134 26.2531 11.574C26.3313 11.568 26.4035 11.562 26.4818 11.562C27.8119 11.562 28.8892 12.6393 28.8892 13.9694Z" fill="#048FFE"></path></g><g id="Group_68"><path id="Vector_65" d="M33.7036 8.55243C33.7036 9.10011 33.5171 9.59965 33.2101 10.0089C32.9874 10.3038 32.6986 10.5446 32.3615 10.7071C32.0365 10.8696 31.6754 10.9598 31.2962 10.9598C30.6823 10.9598 30.1226 10.7311 29.6953 10.3459C30.9171 10.2316 31.868 9.20243 31.868 7.95057C31.868 7.24039 31.5611 6.59641 31.0675 6.15706C31.1458 6.15104 31.218 6.14502 31.2962 6.14502C32.6263 6.14502 33.7036 7.22233 33.7036 8.55243Z" fill="#048FFE"></path></g><g id="Group_69"><path id="Vector_66" d="M38.5191 12.7653C38.5191 14.0954 37.4418 15.1727 36.1117 15.1727C35.4978 15.1727 34.9381 14.944 34.5107 14.5588C35.7325 14.4445 36.6834 13.4153 36.6834 12.1635C36.6834 11.4533 36.3765 10.8093 35.883 10.3699C35.9612 10.3639 36.0334 10.3579 36.1117 10.3579C37.4418 10.3579 38.5191 11.4352 38.5191 12.7653Z" fill="#048FFE"></path></g><g id="Group_70"><path id="Vector_67" d="M46.9449 4.33954C46.9449 5.66963 45.8675 6.74694 44.5375 6.74694C43.9236 6.74694 43.3638 6.51824 42.9365 6.13305C44.1583 6.0187 45.1092 4.98954 45.1092 3.73768C45.1092 3.0275 44.8023 2.38352 44.3087 1.94417C44.387 1.93815 44.4592 1.93213 44.5375 1.93213C45.8675 1.93213 46.9449 3.00944 46.9449 4.33954Z" fill="#048FFE"></path></g><g id="Group_71"><path id="Vector_68" d="M7.82376 27.8117C7.82376 29.1418 6.74645 30.2191 5.41636 30.2191C4.80247 30.2191 4.24274 29.9904 3.81543 29.6052C5.03719 29.4909 5.98811 28.4617 5.98811 27.2099C5.98811 26.4997 5.68117 25.8557 5.18765 25.4163C5.26589 25.4103 5.33811 25.4043 5.41636 25.4043C6.74645 25.4043 7.82376 26.4816 7.82376 27.8117Z" fill="#048FFE"></path></g><g id="Group_72"><path id="Vector_69" d="M15.0474 31.423C15.0474 32.7531 13.9701 33.8304 12.64 33.8304C12.0261 33.8304 11.4664 33.6017 11.0391 33.2166C12.2608 33.1022 13.2117 32.073 13.2117 30.8212C13.2117 30.111 12.9048 29.467 12.4113 29.0277C12.4895 29.0216 12.5617 29.0156 12.64 29.0156C13.9701 29.0156 15.0474 30.0929 15.0474 31.423Z" fill="#048FFE"></path></g><g id="Group_73"><path id="Vector_70" d="M28.2867 60.3117C28.2867 61.6418 27.2093 62.7191 25.8792 62.7191C25.2654 62.7191 24.7056 62.4904 24.2783 62.1052C25.5001 61.9909 26.451 60.9617 26.451 59.7099C26.451 58.9997 26.1441 58.3557 25.6505 57.9163C25.7288 57.9103 25.801 57.9043 25.8792 57.9043C27.2093 57.9043 28.2867 58.9816 28.2867 60.3117Z" fill="#048FFE"></path></g><g id="Group_74"><path id="Vector_71" d="M32.4995 54.8952C32.4995 56.2253 31.4222 57.3026 30.0921 57.3026C29.4782 57.3026 28.9185 57.0739 28.4912 56.6887C29.713 56.5744 30.6639 55.5452 30.6639 54.2933C30.6639 53.5832 30.357 52.9392 29.8634 52.4998C29.9417 52.4938 30.0139 52.4878 30.0921 52.4878C31.4222 52.4878 32.4995 53.5651 32.4995 54.8952Z" fill="#048FFE"></path></g><g id="Group_75"><path id="Vector_72" d="M22.2691 58.506C22.2691 59.1139 22.0404 59.6616 21.6672 60.0889V60.0949C21.2279 60.5945 20.5839 60.9134 19.8617 60.9134C19.2478 60.9134 18.6881 60.6847 18.2607 60.2996C19.4825 60.1852 20.4334 59.156 20.4334 57.9042C20.4334 57.194 20.1265 56.55 19.633 56.1107C19.7112 56.1047 19.7834 56.0986 19.8617 56.0986C21.0594 56.0986 22.0524 56.9713 22.239 58.1209C22.257 58.2472 22.2691 58.3736 22.2691 58.506Z" fill="#048FFE"></path></g></g><g id="Group_76"><path id="Vector_73" d="M46.9455 24.2005V44.6634C46.9455 46.6556 45.3265 48.2745 43.3344 48.2745H21.6678C21.4872 48.2745 21.3127 48.2625 21.1381 48.2324C19.3988 47.9796 18.0566 46.475 18.0566 44.6634V24.2005C18.0566 22.2083 19.6756 20.5894 21.6678 20.5894H43.3344C43.515 20.5894 43.6895 20.6014 43.864 20.6315C45.6034 20.8843 46.9455 22.3889 46.9455 24.2005Z" fill="#C5C9D2"></path></g><g id="Group_77"><g id="Group_78"><path id="Vector_74" d="M11.971 68.2683C11.6382 68.2683 11.3691 67.9987 11.3691 67.6665V65.7947C11.3691 65.4625 11.6382 65.1929 11.971 65.1929C12.3038 65.1929 12.5728 65.4625 12.5728 65.7947V67.6665C12.5728 67.9987 12.3032 68.2683 11.971 68.2683Z" fill="#003DBA"></path></g><g id="Group_79"><path id="Vector_75" d="M11.971 63.8566C11.6382 63.8566 11.3691 63.5869 11.3691 63.2547V61.389C11.3691 61.0567 11.6382 60.7871 11.971 60.7871C12.3038 60.7871 12.5728 61.0567 12.5728 61.389V63.2547C12.5728 63.5869 12.3032 63.8566 11.971 63.8566Z" fill="#003DBA"></path></g><g id="Group_80"><path id="Vector_76" d="M10.7021 65.1266H8.83037C8.49754 65.1266 8.22852 64.8569 8.22852 64.5247C8.22852 64.1925 8.49754 63.9229 8.83037 63.9229H10.7021C11.035 63.9229 11.304 64.1925 11.304 64.5247C11.304 64.8569 11.035 65.1266 10.7021 65.1266Z" fill="#003DBA"></path></g><g id="Group_81"><path id="Vector_77" d="M15.1072 65.1266H13.2415C12.9087 65.1266 12.6396 64.8569 12.6396 64.5247C12.6396 64.1925 12.9087 63.9229 13.2415 63.9229H15.1072C15.4401 63.9229 15.7091 64.1925 15.7091 64.5247C15.7091 64.8569 15.4395 65.1266 15.1072 65.1266Z" fill="#003DBA"></path></g></g><g id="Group_82"><g id="Group_83"><path id="Vector_78" d="M54.7034 7.48122C54.3706 7.48122 54.1016 7.2116 54.1016 6.87937V5.00761C54.1016 4.67539 54.3706 4.40576 54.7034 4.40576C55.0362 4.40576 55.3053 4.67539 55.3053 5.00761V6.87937C55.3053 7.2116 55.0356 7.48122 54.7034 7.48122Z" fill="#003DBA"></path></g><g id="Group_84"><path id="Vector_79" d="M54.7034 3.06944C54.3706 3.06944 54.1016 2.79981 54.1016 2.46759V0.601852C54.1016 0.26963 54.3706 0 54.7034 0C55.0362 0 55.3053 0.26963 55.3053 0.601852V2.46759C55.3053 2.79981 55.0356 3.06944 54.7034 3.06944Z" fill="#003DBA"></path></g><g id="Group_85"><path id="Vector_80" d="M53.4326 4.33945H51.5608C51.228 4.33945 50.959 4.06982 50.959 3.73759C50.959 3.40537 51.228 3.13574 51.5608 3.13574H53.4326C53.7654 3.13574 54.0344 3.40537 54.0344 3.73759C54.0344 4.06982 53.7654 4.33945 53.4326 4.33945Z" fill="#003DBA"></path></g><g id="Group_86"><path id="Vector_81" d="M57.8377 4.33945H55.972C55.6391 4.33945 55.3701 4.06982 55.3701 3.73759C55.3701 3.40537 55.6391 3.13574 55.972 3.13574H57.8377C58.1705 3.13574 58.4396 3.40537 58.4396 3.73759C58.4396 4.06982 58.1699 4.33945 57.8377 4.33945Z" fill="#003DBA"></path></g></g><g id="Group_87"><path id="Vector_82" d="M42.7325 25.4461V43.4174C42.7325 43.7544 42.4617 44.0192 42.1306 44.0192H22.8714C22.5404 44.0192 22.2695 43.7544 22.2695 43.4174V25.4461C22.2695 25.1091 22.5404 24.8442 22.8714 24.8442H42.1306C42.4617 24.8442 42.7325 25.1091 42.7325 25.4461Z" fill="#003DBA"></path></g><g id="Group_88"><path id="Vector_83" d="M39.7228 28.4134V40.4504C39.7228 40.7814 39.4519 41.0523 39.1209 41.0523H25.8802C25.5492 41.0523 25.2783 40.7814 25.2783 40.4504V28.4134C25.2783 28.0824 25.5492 27.8115 25.8802 27.8115H39.1209C39.4519 27.8115 39.7228 28.0824 39.7228 28.4134Z" fill="#FEEE00"></path></g><g id="Group_89"><path id="Vector_84" d="M3.60992 59.7098C3.44983 59.7098 3.29094 59.6466 3.17178 59.5214C2.94367 59.2795 2.95511 58.8985 3.19645 58.6704L8.14969 53.994C8.39164 53.7653 8.77201 53.7767 9.00071 54.0187C9.22881 54.2606 9.21738 54.6416 8.97604 54.8697L4.02219 59.5461C3.90664 59.6556 3.75798 59.7098 3.60992 59.7098Z" fill="#003DBA"></path></g><g id="Group_90"><path id="Vector_85" d="M10.5679 53.1375C10.4078 53.1375 10.249 53.0743 10.1298 52.9491C9.90168 52.7072 9.91312 52.3262 10.1545 52.0981L14.0304 48.4388C14.2723 48.2101 14.6527 48.2216 14.8814 48.4635C15.1095 48.7054 15.0981 49.0864 14.8567 49.3145L10.9808 52.9738C10.8646 53.0833 10.716 53.1375 10.5679 53.1375Z" fill="#003DBA"></path></g><g id="Group_91"><path id="Vector_86" d="M61.9898 63.9227C61.8357 63.9227 61.6816 63.8637 61.5643 63.7463L56.28 58.4621C56.0447 58.2268 56.0447 57.8464 56.28 57.6111C56.5153 57.3757 56.8957 57.3757 57.131 57.6111L62.4153 62.8953C62.6506 63.1306 62.6506 63.511 62.4153 63.7463C62.2979 63.8637 62.1439 63.9227 61.9898 63.9227Z" fill="#003DBA"></path></g><g id="Group_92"><path id="Vector_87" d="M54.7679 56.7003C54.6138 56.7003 54.4598 56.6413 54.3424 56.524L52.5368 54.7184C52.3015 54.4831 52.3015 54.1027 52.5368 53.8674C52.7722 53.6321 53.1525 53.6321 53.3879 53.8674L55.1934 55.673C55.4287 55.9083 55.4287 56.2887 55.1934 56.524C55.0761 56.6413 54.922 56.7003 54.7679 56.7003Z" fill="#003DBA"></path></g><g id="Group_93"><path id="Vector_88" d="M4.56925 9.40101C4.4224 9.40101 4.27554 9.34745 4.15878 9.23971L2.59999 7.78925C2.35684 7.56295 2.343 7.18198 2.56929 6.93883C2.79619 6.69508 3.17716 6.68245 3.42031 6.90814L4.97911 8.3586C5.22226 8.5849 5.2361 8.96587 5.0098 9.20902C4.89124 9.33661 4.72994 9.40101 4.56925 9.40101Z" fill="#003DBA"></path></g><g id="Group_94"><path id="Vector_89" d="M11.4359 15.7746C11.2891 15.7746 11.1422 15.7216 11.026 15.6133L5.72433 10.6841C5.48119 10.4578 5.46674 10.0768 5.69304 9.83369C5.92054 9.58994 6.30091 9.5767 6.54345 9.80239L11.8458 14.7316C12.0889 14.9579 12.1034 15.3388 11.8771 15.582C11.7579 15.7102 11.5972 15.7746 11.4359 15.7746Z" fill="#003DBA"></path></g><g id="Group_95"><path id="Vector_90" d="M56.3762 11.6155C56.2083 11.6155 56.0404 11.5451 55.9212 11.4079C55.7039 11.1569 55.731 10.7765 55.9814 10.5587L61.5967 5.68968C61.8476 5.47241 62.2274 5.49829 62.4459 5.74987C62.6632 6.00084 62.6361 6.38121 62.3851 6.59908L56.7698 11.4681C56.6567 11.5668 56.5158 11.6155 56.3762 11.6155Z" fill="#003DBA"></path></g><g id="Group_96"><path id="Vector_91" d="M52.963 14.5708C52.7951 14.5708 52.6271 14.5003 52.5086 14.3631C52.2907 14.1122 52.3178 13.7318 52.5688 13.5139L54.3442 11.9732C54.5952 11.7559 54.9756 11.7824 55.1928 12.0334C55.4107 12.2843 55.3836 12.6647 55.1326 12.8826L53.3572 14.4233C53.2434 14.522 53.1026 14.5708 52.963 14.5708Z" fill="#003DBA"></path></g><g id="Group_97"><path id="Vector_92" d="M39.7218 28.4134V40.4504C39.7218 40.7814 39.4509 41.0523 39.1199 41.0523H35.5088C35.8398 41.0523 36.1106 40.7814 36.1106 40.4504V28.4134C36.1106 28.0824 35.8398 27.8115 35.5088 27.8115H39.1199C39.4509 27.8115 39.7218 28.0824 39.7218 28.4134Z" fill="#FFB403"></path></g><g id="Group_98"><path id="Vector_93" d="M31.8993 34.7329V41.0523H30.0938V34.7329C30.0938 34.2345 30.4982 33.8301 30.9965 33.8301C31.4949 33.8301 31.8993 34.2345 31.8993 34.7329Z" fill="#FFB403"></path></g><g id="Group_99"><path id="Vector_94" d="M31.8993 27.8115V31.1217C31.8993 31.62 31.4949 32.0245 30.9965 32.0245C30.4982 32.0245 30.0938 31.62 30.0938 31.1217V27.8115H31.8993Z" fill="#FFB403"></path></g><g id="Group_100"><path id="Vector_95" d="M34.9081 34.7329V41.0523H33.1025V34.7329C33.1025 34.2345 33.507 33.8301 34.0053 33.8301C34.5037 33.8301 34.9081 34.2345 34.9081 34.7329Z" fill="#FFB403"></path></g><g id="Group_101"><path id="Vector_96" d="M34.9081 27.8115V31.1217C34.9081 31.62 34.5037 32.0245 34.0053 32.0245C33.507 32.0245 33.1025 31.62 33.1025 31.1217V27.8115H34.9081Z" fill="#FFB403"></path></g><g id="Group_102"><path id="Vector_97" d="M42.7313 25.4461V43.4174C42.7313 43.7544 42.4604 44.0192 42.1294 44.0192H40.9257V29.0151C40.9257 27.2095 40.9257 26.6077 39.1202 26.6077H30.6942C29.697 26.6077 28.8887 26.0058 28.8887 25.404V24.8442H42.1294C42.4604 24.8442 42.7313 25.1091 42.7313 25.4461Z" fill="#022C68"></path></g><g id="Group_103"><path id="Vector_98" d="M46.9451 24.2003V44.0554L46.909 44.0548C45.5934 44.035 44.5377 42.9631 44.5377 41.6474V24.8022C44.5377 23.5985 44.5377 22.9966 42.7322 22.9966H34.9081C33.9108 22.9966 33.1025 22.1883 33.1025 21.1911V20.6313H43.8636C45.603 20.8841 46.9451 22.3888 46.9451 24.2003Z" fill="#8C9096"></path></g><g id="Group_104"><path id="Vector_99" d="M27.6853 24.8442V25.404C27.6853 26.0058 26.877 26.6077 25.8798 26.6077C24.8825 26.6077 24.0742 26.0058 24.0742 25.404V24.8442H27.6853Z" fill="#022C68"></path></g><g id="Group_105"><path id="Vector_100" d="M31.8982 20.5894V21.1491C31.8982 22.1463 31.0899 22.9546 30.0927 22.9546C29.0954 22.9546 28.2871 22.1463 28.2871 21.1491V20.5894H31.8982Z" fill="#8C9096"></path></g><g id="Group_106"><g id="Group_107"><path id="Vector_101" d="M59.5814 21.191C59.5814 21.853 59.0397 22.3947 58.3777 22.3947C57.7999 22.3947 57.3185 21.9855 57.2041 21.4438C57.2763 20.9262 57.5171 20.4628 57.8661 20.1017C58.0226 20.0294 58.1972 19.9873 58.3777 19.9873C59.0397 19.9873 59.5814 20.529 59.5814 21.191Z" fill="#A8F0FF"></path></g></g></g></svg>