<svg xmlns="http://www.w3.org/2000/svg" width="66" height="71" viewBox="0 0 66 71" fill="none"><g id="Icon"><g id="Group"><path id="Vector" d="M40.5763 33.281H61.196C61.0012 30.8373 60.5417 27.956 59.543 25.2075L55.825 19.663C51.8548 14.5646 45.6909 11.2593 38.7503 11.1651C32.2546 11.077 24.1076 14.6899 19.3413 22.1849C17.5597 25.2883 16.5119 28.877 16.4342 32.7237C16.3184 38.4979 18.4275 43.7802 21.9605 47.7683C22.6213 48.5137 23.2172 49.3108 23.744 50.149L29.302 44.7531L40.5763 33.281Z" fill="#93B2F4"/><path id="Vector_2" d="M61.2064 39.4065C61.2064 39.4065 61.4744 36.797 61.1941 33.2808H40.5746L29.3001 44.7529L23.7422 50.1487C25.4752 52.9062 26.4496 56.1122 26.4454 59.4173V67.0336C26.4454 68.174 27.3705 69.0978 28.5109 69.0978H45.2367C46.3771 69.0978 47.301 68.174 47.301 67.0336V61.8917C47.301 60.5918 48.3541 59.5372 49.6554 59.5372H56.4106C58.0619 59.5372 59.4422 58.2824 59.5975 56.6393L60.4586 47.5175L63.8744 45.2502C64.6169 44.7584 64.7695 43.7324 64.2041 43.0457L61.2064 39.4065Z" fill="#D2DCFD"/><path id="Vector_3" d="M29.3409 44.7114L29.3001 44.7529L23.7422 50.1487C25.4752 52.9062 26.4496 56.1122 26.4454 59.4173V67.0336C26.4454 68.174 27.3705 69.0979 28.5109 69.0979H45.2367C46.3771 69.0979 47.301 68.174 47.301 67.0336V61.8917C47.301 61.4859 47.4036 61.1042 47.5844 60.7709C40.2755 56.9697 34.0124 51.4352 29.3409 44.7114Z" fill="#93B2F4"/><path id="Vector_4" d="M8.05222 27.5314C6.46865 26.8818 5.35742 25.3607 5.35742 23.5879V5.66222C5.35742 3.29853 7.33292 1.38232 9.76971 1.38232H28.2497C30.6865 1.38232 32.6618 3.29853 32.6618 5.66222V23.5879C32.6618 25.9516 30.6865 27.8678 28.2497 27.8678H16.57" fill="#FDCB50"/><g id="Group_2"><path id="Vector_5" d="M35.9132 31.8154C31.4081 31.8154 27.7559 35.4676 27.7559 39.9728C27.7559 44.478 31.4081 48.1302 35.9132 48.1302C40.4184 48.1302 44.0706 44.478 44.0706 39.9728C44.0705 35.4675 40.4184 31.8154 35.9132 31.8154Z" fill="#6864F7"/><path id="Vector_6" d="M35.9138 43.4883C37.8553 43.4883 39.4292 41.9144 39.4292 39.9729C39.4292 38.0314 37.8553 36.4575 35.9138 36.4575C33.9723 36.4575 32.3984 38.0314 32.3984 39.9729C32.3984 41.9144 33.9723 43.4883 35.9138 43.4883Z" fill="#D2DCFD"/></g><g id="Group_3"><path id="Vector_7" d="M22.4553 38.7839L21.0112 37.9501C21.0941 37.4647 21.1397 36.9663 21.1397 36.4572C21.1397 35.9481 21.0941 35.4498 21.0112 34.9643L22.4553 34.1306C23.2466 33.6737 23.5177 32.6618 23.0609 31.8705L21.6686 29.4589C21.2117 28.6676 20.1998 28.3965 19.4085 28.8533L17.9648 29.6868C17.2011 29.0507 16.3286 28.5411 15.3786 28.1908V26.5265C15.3786 25.6128 14.6379 24.8721 13.7241 24.8721H10.9395C10.0258 24.8721 9.28505 25.6128 9.28505 26.5265V28.1908C8.3351 28.5411 7.46253 29.0507 6.69887 29.6868L5.25515 28.8533C4.46384 28.3965 3.45198 28.6676 2.99511 29.4589L1.60279 31.8705C1.14592 32.6618 1.41706 33.6737 2.20836 34.1306L3.6525 34.9643C3.56958 35.4498 3.52398 35.9481 3.52398 36.4572C3.52398 36.9663 3.56958 37.4647 3.6525 37.9501L2.20836 38.7839C1.41706 39.2407 1.14592 40.2526 1.60279 41.0439L2.99511 43.4556C3.45198 44.2469 4.46384 44.518 5.25515 44.0611L6.69887 43.2277C7.46253 43.8638 8.3351 44.3733 9.28505 44.7236V46.3879C9.28505 47.3017 10.0258 48.0424 10.9395 48.0424H13.7241C14.6379 48.0424 15.3786 47.3017 15.3786 46.3879V44.7236C16.3286 44.3733 17.2011 43.8638 17.9648 43.2277L19.4085 44.0611C20.1998 44.518 21.2117 44.2469 21.6686 43.4556L23.0609 41.0439C23.5177 40.2526 23.2466 39.2407 22.4553 38.7839Z" fill="#D2DCFD"/><path id="Vector_8" d="M12.3321 40.0998C14.3439 40.0998 15.9748 38.4689 15.9748 36.4571C15.9748 34.4453 14.3439 32.8145 12.3321 32.8145C10.3203 32.8145 8.68945 34.4453 8.68945 36.4571C8.68945 38.4689 10.3203 40.0998 12.3321 40.0998Z" fill="#93B2F4"/></g><g id="Group_4"><path id="Vector_9" d="M57.9954 20.1146L56.6584 19.3427C56.7352 18.8931 56.7774 18.4318 56.7774 17.9603C56.7774 17.4889 56.7351 17.0275 56.6584 16.5779L57.9954 15.806C58.7281 15.383 58.9791 14.4461 58.5561 13.7134L57.2668 11.4806C56.8438 10.7479 55.907 10.4969 55.1743 10.92L53.8377 11.6916C53.1305 11.1027 52.3227 10.6309 51.443 10.3067V8.76578C51.443 7.91975 50.7572 7.23389 49.9112 7.23389H47.3328C46.4868 7.23389 45.8011 7.91975 45.8011 8.76578V10.3067C44.9215 10.631 44.1136 11.1028 43.4065 11.6918L42.0697 10.9201C41.337 10.4971 40.4002 10.7482 39.9771 11.4808L38.6879 13.7136C38.2649 14.4463 38.516 15.3831 39.2486 15.8061L40.5856 16.5781C40.5088 17.0276 40.4666 17.4889 40.4666 17.9604C40.4666 18.4318 40.5089 18.8933 40.5856 19.3428L39.2486 20.1148C38.5159 20.5378 38.2649 21.4746 38.6879 22.2073L39.9771 24.4401C40.4002 25.1728 41.337 25.4238 42.0697 25.0008L43.4063 24.2291C44.1135 24.8181 44.9213 25.2899 45.801 25.6142V27.1551C45.801 28.0011 46.4868 28.687 47.3327 28.687H49.911C50.757 28.687 51.4429 28.0011 51.4429 27.1551V25.6142C52.3225 25.2899 53.1304 24.8181 53.8375 24.2291L55.1742 25.0008C55.9069 25.4238 56.8437 25.1727 57.2667 24.4401L58.5559 22.2073C58.9791 21.4745 58.728 20.5376 57.9954 20.1146Z" fill="#D2DCFD"/><path id="Vector_10" d="M48.6231 21.6027C50.6349 21.6027 52.2658 19.9719 52.2658 17.9601C52.2658 15.9483 50.6349 14.3174 48.6231 14.3174C46.6114 14.3174 44.9805 15.9483 44.9805 17.9601C44.9805 19.9719 46.6114 21.6027 48.6231 21.6027Z" fill="#93B2F4"/></g></g><g id="Group_5"><g id="Group_6"><path id="Vector_11" d="M65.2735 42.2407L62.5414 38.924L61.8504 33.1626C61.5948 27.9292 60.1244 24.4342 59.5495 23.2527L59.754 22.8975C60.018 22.4401 60.1437 21.9398 60.1437 21.4451C60.1437 20.4376 59.6214 19.4565 58.6872 18.9175L58.1371 18.5996C58.1523 18.3854 58.1593 18.1712 58.1593 17.9598C58.1593 17.7484 58.1523 17.5342 58.1371 17.32L58.6872 17.0021C60.0788 16.1992 60.5569 14.4137 59.754 13.0221L58.4647 10.7889C58.075 10.1159 57.4462 9.63357 56.6944 9.4318C55.9426 9.23004 55.1577 9.33368 54.4833 9.72201L53.936 10.0399C53.5795 9.7994 53.2091 9.5852 52.8249 9.39725V8.7657C52.8249 7.1585 51.519 5.85117 49.9118 5.85117H47.3331C45.7272 5.85117 44.4199 7.1585 44.4199 8.7657V9.39725C44.0357 9.5852 43.6654 9.7994 43.3088 10.0399L42.7616 9.72339C41.6505 9.08079 40.2865 9.25629 39.3744 10.0634C39.2114 9.99149 39.0317 9.95141 38.8438 9.94865C37.2241 9.92654 35.6169 10.0689 34.047 10.3729V5.66184C34.047 2.54002 31.4476 0 28.2525 0H9.77183C6.57815 0 3.9787 2.54002 3.9787 5.66184V23.5871C3.9787 25.0589 4.55636 26.4325 5.54445 27.4607C4.94192 27.2216 4.28135 27.1816 3.64289 27.3529C2.85932 27.563 2.20428 28.0646 1.79937 28.768L0.406363 31.1795C-0.431098 32.6292 0.067785 34.4893 1.51745 35.3268L2.17111 35.704C2.15176 35.9569 2.14209 36.2071 2.14209 36.4572C2.14209 36.7059 2.15176 36.9575 2.17111 37.209L1.51745 37.5862C0.067785 38.4237 -0.431098 40.2852 0.406363 41.7349L1.79937 44.1464C2.20428 44.8484 2.85932 45.3514 3.64289 45.5601C4.42645 45.7701 5.24457 45.6624 5.9466 45.2574L6.59888 44.8816C7.01484 45.1649 7.45016 45.4178 7.90344 45.6361V46.3879C7.90344 48.0614 9.26604 49.424 10.9396 49.424H13.7242C15.3991 49.424 16.7603 48.0614 16.7603 46.3879V45.6361C17.2136 45.4178 17.6489 45.1649 18.0663 44.8816L18.3758 45.0598C18.3786 45.064 18.38 45.0681 18.3828 45.0723C19.0129 46.1474 19.7288 47.1756 20.5248 48.1333C21.2544 49.0108 22.1154 49.811 22.6322 50.8447C22.6336 50.8474 22.6364 50.8502 22.6378 50.853C24.2975 53.4552 25.175 56.425 25.175 59.4445V67.0328C25.175 68.933 26.7214 70.4794 28.6216 70.4794H45.2893C47.1895 70.4794 48.7345 68.933 48.7345 67.0328V61.9113C48.7345 61.3793 49.1684 60.9467 49.7005 60.9467H56.4375C58.8089 60.9467 60.7657 59.1654 60.9896 56.805L61.787 48.3654L64.6435 46.4694C65.322 46.0189 65.7781 45.3003 65.8983 44.496C66.0185 43.6903 65.7904 42.8694 65.2735 42.2407ZM39.8857 14.4041L41.1751 12.1708C41.2152 12.1003 41.3078 12.0755 41.3796 12.1169L42.716 12.8881C43.2176 13.1783 43.8464 13.1244 44.2914 12.7526C44.8884 12.2565 45.5573 11.8696 46.28 11.6028C46.8231 11.4025 47.1838 10.8856 47.1838 10.3066V8.7657C47.1838 8.68279 47.2501 8.61507 47.3331 8.61507H49.9118C49.9947 8.61507 50.061 8.68279 50.061 8.7657V10.3066C50.061 10.8856 50.4217 11.4025 50.9648 11.6028C51.689 11.8696 52.3578 12.2565 52.9534 12.7526C53.3984 13.123 54.0272 13.1783 54.5289 12.8881L55.8652 12.1169C55.9011 12.0962 55.9398 12.0907 55.9799 12.1017C56.0186 12.1114 56.0504 12.1349 56.0711 12.1708L57.3591 14.4041C57.4006 14.4759 57.3771 14.5671 57.3052 14.6086L55.9675 15.3811C55.4672 15.6699 55.1991 16.2407 55.2959 16.81C55.3622 17.1956 55.3954 17.5825 55.3954 17.9598C55.3954 18.3371 55.3622 18.724 55.2959 19.1096C55.1991 19.679 55.4672 20.2497 55.9675 20.5385L57.3052 21.311C57.3757 21.3525 57.4006 21.4437 57.3591 21.5156L56.0711 23.7488C56.0504 23.7847 56.0186 23.8082 55.9799 23.8179C55.9398 23.8289 55.9011 23.8248 55.8652 23.8041L54.5289 23.0316C54.0272 22.7427 53.3984 22.7966 52.9534 23.167C52.3578 23.6631 51.689 24.0501 50.9648 24.3168C50.4217 24.5172 50.061 25.0354 50.061 25.613V27.1539C50.061 27.2368 49.9947 27.3045 49.9118 27.3045H47.3331C47.2501 27.3045 47.1838 27.2368 47.1838 27.1539V25.613C47.1838 25.0354 46.8231 24.5172 46.28 24.3168C45.5573 24.0501 44.8884 23.6631 44.2914 23.167C44.0371 22.9542 43.7234 22.8464 43.4069 22.8464C43.1693 22.8464 42.9316 22.9072 42.716 23.0316L41.3796 23.8041C41.3078 23.8441 41.2166 23.8207 41.1751 23.7488L39.8857 21.5156C39.8443 21.4437 39.8692 21.3525 39.9396 21.311L41.2774 20.5385C41.7776 20.2497 42.0457 19.679 41.949 19.1096C41.8827 18.724 41.8495 18.3371 41.8495 17.9598C41.8495 17.5825 41.8827 17.1956 41.949 16.81C42.0457 16.2407 41.7776 15.6699 41.2774 15.3811L39.9396 14.6086C39.9051 14.5879 39.8816 14.5575 39.8705 14.5174C39.8596 14.4787 39.8652 14.44 39.8857 14.4041ZM6.7426 5.66184C6.7426 4.06431 8.10105 2.7639 9.77183 2.7639H28.2526C29.9234 2.7639 31.2832 4.06431 31.2832 5.66184V23.5871C31.2832 25.186 29.9234 26.4851 28.2526 26.4851H16.759C16.7382 24.8295 15.3853 23.4904 13.7242 23.4904H10.9396C9.47471 23.4904 8.24892 24.5324 7.96562 25.9157C7.20693 25.3753 6.7426 24.5185 6.7426 23.5871V5.66184ZM20.4721 42.7644C20.3975 42.8943 20.2303 42.9385 20.1004 42.8639L18.6562 42.0306C18.1546 41.7404 17.5258 41.7943 17.0808 42.1646C16.4272 42.7105 15.6933 43.1348 14.9015 43.4264C14.357 43.6267 13.9963 44.1436 13.9963 44.7226V46.3879C13.9963 46.5371 13.8747 46.6601 13.7241 46.6601H10.9394C10.7902 46.6601 10.6672 46.5371 10.6672 46.3879V44.7226C10.6672 44.1436 10.3065 43.6267 9.7634 43.4264C8.97154 43.1348 8.23773 42.7105 7.58407 42.1646C7.32979 41.9532 7.0147 41.8454 6.69824 41.8454C6.46192 41.8454 6.22285 41.9062 6.00865 42.0306L4.56451 42.8639C4.48436 42.9109 4.40697 42.904 4.35722 42.8915C4.30747 42.8777 4.23837 42.8446 4.19276 42.7644L2.79976 40.3529C2.72513 40.223 2.76936 40.0558 2.89926 39.9798L4.3434 39.1465C4.84504 38.8576 5.11176 38.2869 5.01502 37.7175C4.94316 37.2947 4.90585 36.8704 4.90585 36.4572C4.90585 36.0426 4.94316 35.6197 5.01502 35.1969C5.11176 34.6261 4.84504 34.0567 4.3434 33.7665L2.89926 32.9332C2.76936 32.8586 2.72513 32.6914 2.79976 32.5615L4.19276 30.15C4.23837 30.0684 4.30747 30.0353 4.35722 30.0228C4.40697 30.009 4.48436 30.0035 4.56451 30.0505L6.00865 30.8838C6.51029 31.1726 7.13908 31.1187 7.58407 30.7484C8.23773 30.2039 8.97154 29.7796 9.7634 29.4866C10.3065 29.2863 10.6672 28.7694 10.6672 28.1904V26.5265C10.6672 26.3759 10.7902 26.2543 10.9394 26.2543H13.7241C13.8747 26.2543 13.9963 26.3759 13.9963 26.5265V28.1904C13.9963 28.7694 14.357 29.2863 14.9015 29.4866C15.6933 29.7796 16.4272 30.2039 17.0808 30.7484C17.5258 31.1187 18.1546 31.1726 18.6562 30.8838L20.1004 30.0491C20.2303 29.9745 20.3975 30.0187 20.4721 30.15L21.8637 32.5615C21.9398 32.6914 21.8941 32.8586 21.7642 32.9332L20.3201 33.7665C19.8198 34.0567 19.5517 34.6261 19.6499 35.1969C19.7217 35.6197 19.7577 36.044 19.7577 36.4572C19.7577 36.8704 19.7217 37.2947 19.6499 37.7175C19.5517 38.2869 19.8198 38.8576 20.3201 39.1465L21.7642 39.9798C21.8941 40.0558 21.9398 40.223 21.8637 40.3529L20.4721 42.7644ZM23.9961 47.9799C23.7169 47.615 23.4226 47.2585 23.1172 46.913C22.6432 46.3796 22.1968 45.8185 21.7836 45.2381C22.2189 44.9824 22.5948 44.6135 22.8657 44.1464L24.2587 41.7349C24.5337 41.2581 24.6636 40.7371 24.6636 40.2216C24.6636 39.1713 24.1191 38.1487 23.1462 37.5862L22.4939 37.209C22.5119 36.9575 22.5216 36.7059 22.5216 36.4572C22.5216 36.2071 22.5119 35.9569 22.4939 35.704L23.1462 35.3268C24.5959 34.4893 25.0947 32.6292 24.2587 31.1795L23.1434 29.2489H28.2525C31.4476 29.2489 34.047 26.7089 34.047 23.5871V13.1935C35.23 12.9337 36.4392 12.7789 37.6608 12.7291L37.4922 13.0221C37.1025 13.6965 36.9989 14.4814 37.2006 15.2332C37.4024 15.985 37.8847 16.6138 38.5577 17.0021L39.1077 17.32C39.0925 17.5342 39.0856 17.7484 39.0856 17.9598C39.0856 18.1712 39.0925 18.3854 39.1077 18.5996L38.5577 18.9175C37.1674 19.7204 36.6879 21.5059 37.4922 22.8975L38.7816 25.1307C39.5845 26.5224 41.37 27.0005 42.7616 26.1976L43.3088 25.8811C43.6654 26.1202 44.0357 26.3344 44.4199 26.5224V27.1539C44.4199 28.7611 45.7272 30.0684 47.3331 30.0684H49.9118C51.519 30.0684 52.8249 28.7611 52.8249 27.1539V26.5224C53.2091 26.3344 53.5795 26.1202 53.936 25.8811L54.4833 26.1976C55.1577 26.5859 55.944 26.6896 56.6944 26.4878C57.062 26.3897 57.4006 26.2225 57.6963 26C58.1703 27.3225 58.7314 29.3305 58.9857 31.8981H40.9872C39.5168 30.9709 37.7755 30.4333 35.9126 30.4333C30.6529 30.4333 26.373 34.7118 26.373 39.9729C26.373 41.6257 26.7959 43.1818 27.538 44.5388L23.9961 47.9799ZM42.6883 39.9729C42.6883 43.7083 39.648 46.7472 35.9126 46.7472C32.1772 46.7472 29.1369 43.7083 29.1369 39.9729C29.1369 36.2361 32.1772 33.1972 35.9126 33.1972C39.648 33.1972 42.6883 36.2361 42.6883 39.9729ZM63.1647 44.0883C63.1578 44.1381 63.126 44.1588 63.1149 44.1657L59.7084 46.4266C59.3615 46.6574 59.1363 47.0332 59.0976 47.4478L58.8019 50.5766H54.7984C54.0341 50.5766 53.4164 51.1957 53.4164 51.9585C53.4164 52.7214 54.0341 53.3405 54.7984 53.3405H58.5407L58.238 56.5438C58.1496 57.478 57.3757 58.1828 56.4373 58.1828H49.7003C47.644 58.1828 45.9705 59.855 45.9705 61.9113V67.0328C45.9705 67.4087 45.6651 67.7155 45.2892 67.7155H28.6215C28.2456 67.7155 27.9388 67.4087 27.9388 67.0328V59.4445C27.9388 56.266 27.1138 53.1387 25.5425 50.3306L29.2185 46.761C30.9418 48.4608 33.3063 49.5111 35.9126 49.5111C41.1723 49.5111 45.4522 45.2326 45.4522 39.9729C45.4522 38.0091 44.8552 36.1808 43.834 34.662H59.2468L59.8466 39.655C59.877 39.9176 59.9834 40.165 60.1506 40.3681L63.1398 43.9985C63.1482 44.0082 63.173 44.0372 63.1647 44.0883Z" fill="#1C2E72"/></g><g id="Group_7"><g id="Group_8"><g id="Group_9"><path id="Vector_12" d="M21.9202 22.8748C21.3618 22.8748 20.836 22.5339 20.6272 21.9804L16.8385 11.9414L13.0136 21.9843C12.7419 22.6975 11.9435 23.0556 11.2303 22.7839C10.5171 22.5122 10.159 21.7138 10.4307 21.0006L15.2808 8.26596C15.2848 8.25546 15.289 8.24496 15.2933 8.23459C15.5515 7.60304 16.1593 7.19454 16.8417 7.19385C16.8423 7.19385 16.8428 7.19385 16.8434 7.19385C17.525 7.19385 18.1327 7.60097 18.3921 8.23141C18.3972 8.24399 18.4022 8.25657 18.4071 8.26928L23.2132 21.0045C23.4827 21.7185 23.1223 22.5159 22.4082 22.7854C22.2474 22.8461 22.0825 22.8748 21.9202 22.8748Z" fill="#1C2E72"/></g><g id="Group_10"><path id="Vector_13" d="M20.4307 19.7024H13.2335C12.4703 19.7024 11.8516 19.0837 11.8516 18.3204C11.8516 17.5572 12.4703 16.9385 13.2335 16.9385H20.4307C21.194 16.9385 21.8127 17.5572 21.8127 18.3204C21.8127 19.0837 21.194 19.7024 20.4307 19.7024Z" fill="#1C2E72"/></g></g><g id="Group_11"><g id="Group_12"><path id="Vector_14" d="M26.3038 22.8744C25.5406 22.8744 24.9219 22.2557 24.9219 21.4925V8.5758C24.9219 7.81255 25.5406 7.19385 26.3038 7.19385C27.0671 7.19385 27.6858 7.81255 27.6858 8.5758V21.4925C27.6858 22.2557 27.0671 22.8744 26.3038 22.8744Z" fill="#1C2E72"/></g></g></g><g id="Group_13"><g id="Group_14"><path id="Vector_15" d="M48.6195 22.9529C45.8665 22.9529 43.627 20.7132 43.627 17.9603C43.627 15.2075 45.8665 12.9678 48.6195 12.9678C51.3725 12.9678 53.6121 15.2075 53.6121 17.9603C53.6121 20.7132 51.3725 22.9529 48.6195 22.9529ZM48.6195 15.7317C47.3906 15.7317 46.3909 16.7315 46.3909 17.9603C46.3909 19.1892 47.3906 20.189 48.6195 20.189C49.8485 20.189 50.8482 19.1892 50.8482 17.9603C50.8482 16.7315 49.8484 15.7317 48.6195 15.7317Z" fill="#1C2E72"/></g></g><g id="Group_15"><g id="Group_16"><path id="Vector_16" d="M12.3361 41.4258C9.59627 41.4258 7.36719 39.1967 7.36719 36.4569C7.36719 33.717 9.59627 31.4878 12.3361 31.4878C15.0761 31.4878 17.3052 33.7169 17.3052 36.4569C17.3052 39.1969 15.0761 41.4258 12.3361 41.4258ZM12.3361 34.2518C11.1203 34.2518 10.1311 35.241 10.1311 36.457C10.1311 37.6728 11.1203 38.662 12.3361 38.662C13.552 38.662 14.5413 37.6728 14.5413 36.457C14.5413 35.241 13.552 34.2518 12.3361 34.2518Z" fill="#1C2E72"/></g></g><g id="Group_17"><path id="Vector_17" d="M35.911 44.8699C33.2106 44.8699 31.0137 42.673 31.0137 39.9725C31.0137 37.2721 33.2106 35.0752 35.911 35.0752C38.6115 35.0752 40.8084 37.2721 40.8084 39.9725C40.8084 42.673 38.6115 44.8699 35.911 44.8699ZM35.911 37.8391C34.7346 37.8391 33.7776 38.7962 33.7776 39.9725C33.7776 41.1489 34.7347 42.106 35.911 42.106C37.0873 42.106 38.0445 41.1489 38.0445 39.9725C38.0445 38.7962 37.0875 37.8391 35.911 37.8391Z" fill="#1C2E72"/></g></g></g></svg>